<svg width="20" height="20" viewBox="0 0 20 20" fill="none" xmlns="http://www.w3.org/2000/svg">
<path fill-rule="evenodd" clip-rule="evenodd" d="M13.914 2.22852C16.5692 2.22852 18.5713 4.39489 18.5713 7.26772V12.7439C18.5713 14.2142 18.0515 15.5425 17.1066 16.485C16.259 17.3294 15.1595 17.7767 13.9268 17.7767H6.07059C4.84029 17.7767 3.74156 17.3302 2.89318 16.485C1.94833 15.5425 1.42847 14.2142 1.42847 12.7439V7.26772C1.42847 4.39489 3.43059 2.22852 6.08574 2.22852H13.914ZM13.914 3.42453H6.08574C4.08043 3.42453 2.62448 5.04074 2.62448 7.26772V12.7439C2.62448 13.8944 3.01996 14.9222 3.73757 15.6374C4.35631 16.2554 5.16402 16.5807 6.07299 16.5807H13.914C13.9156 16.5791 13.922 16.5807 13.9268 16.5807C14.8366 16.5807 15.6435 16.2554 16.2622 15.6374C16.9806 14.9222 17.3753 13.8944 17.3753 12.7439V7.26772C17.3753 5.04074 15.9194 3.42453 13.914 3.42453ZM15.1707 7.11527C15.3788 7.37121 15.3397 7.74756 15.0837 7.95646L11.5404 10.8365C11.0923 11.1921 10.5564 11.3699 10.0214 11.3699C9.488 11.3699 8.95617 11.1937 8.51126 10.8412L4.93518 7.95806C4.67764 7.75075 4.63777 7.37361 4.84428 7.11686C5.05239 6.86091 5.42873 6.82025 5.68548 7.02676L9.25837 9.90676C9.70727 10.2624 10.3396 10.2624 10.7917 9.90357L14.3287 7.02836C14.5854 6.81866 14.9618 6.85852 15.1707 7.11527Z" fill="#9CA3AF"/>
</svg>
