<svg width="20" height="20" viewBox="0 0 20 20" fill="none" xmlns="http://www.w3.org/2000/svg">
<path d="M9.99206 14.3028C8.53491 14.3028 7.07849 14.3064 5.62134 14.3014C4.45706 14.2978 3.53706 13.5293 3.32777 12.3907C3.3042 12.2621 3.2992 12.1286 3.29849 11.9971C3.29634 10.6657 3.29206 9.33498 3.2992 8.00355C3.30491 6.86355 4.06206 5.95427 5.17491 5.73784C5.32634 5.70784 5.48491 5.69998 5.63991 5.69998C8.54777 5.69784 11.4549 5.69713 14.3628 5.69927C15.5406 5.69998 16.4628 6.46355 16.6735 7.60998C16.6985 7.74427 16.7035 7.88427 16.7035 8.02141C16.7056 9.3407 16.7092 10.66 16.7035 11.9793C16.6985 13.1343 15.9478 14.0464 14.8278 14.2628C14.6585 14.2957 14.4821 14.3007 14.3092 14.3014C12.8699 14.3043 11.4306 14.3028 9.99206 14.3028ZM10.0013 6.73284C8.56848 6.73284 7.13634 6.73284 5.70349 6.73284C4.84491 6.73284 4.32991 7.24927 4.32991 8.11213C4.3292 9.37141 4.3292 10.63 4.32991 11.8893C4.33063 12.7514 4.84634 13.2686 5.7042 13.2686C8.5692 13.2686 11.4342 13.2686 14.2992 13.2686C15.1563 13.2686 15.6721 12.7514 15.6728 11.8893C15.6735 10.63 15.6735 9.37141 15.6728 8.11213C15.6721 7.24927 15.1571 6.73355 14.2992 6.73284C12.8663 6.73213 11.4335 6.73284 10.0013 6.73284ZM13.9371 16.2621C14.0292 16.1864 14.1292 16.1178 14.2121 16.0328C14.4278 15.8107 14.4292 15.4928 14.2242 15.2921C14.0163 15.0886 13.7028 15.0893 13.4828 15.305C13.1528 15.6278 12.8242 15.9528 12.5049 16.285C12.1978 16.6043 12.1921 17.0686 12.4963 17.3893C12.8178 17.7286 13.1513 18.0571 13.4871 18.3821C13.7085 18.5957 14.0299 18.5907 14.2292 18.3857C14.4321 18.1771 14.4249 17.8714 14.2099 17.6436C14.1306 17.5593 14.0478 17.4778 13.9328 17.3607C14.0556 17.3607 14.1263 17.3607 14.1971 17.3607C14.9163 17.3571 15.6371 17.3793 16.3542 17.3428C17.4478 17.2871 18.3599 16.4864 18.5228 15.4057C18.6028 14.8714 18.5592 14.3186 18.5628 13.7743C18.5635 13.7028 18.5192 13.6243 18.4771 13.5614C18.3578 13.3836 18.1242 13.305 17.9221 13.3643C17.7092 13.4264 17.5585 13.5971 17.5521 13.8207C17.5413 14.1864 17.5492 14.5521 17.5442 14.9178C17.5321 15.7036 17.0078 16.2721 16.2442 16.3207C16.0056 16.3357 15.7649 16.3257 15.5249 16.3264C15.0113 16.3271 14.4971 16.3264 13.9835 16.3264C13.9671 16.305 13.9521 16.2836 13.9371 16.2621ZM6.01706 2.63998C5.94563 2.63998 5.8742 2.63998 5.80277 2.63998C5.07706 2.64427 4.35063 2.62141 3.62706 2.65927C2.55849 2.71427 1.64349 3.52641 1.48134 4.5807C1.40491 5.07427 1.43563 5.58498 1.42991 6.08713C1.42634 6.42927 1.64134 6.6557 1.9442 6.65498C2.24777 6.65427 2.45491 6.42713 2.45777 6.08498C2.46063 5.75498 2.45563 5.4257 2.4592 5.0957C2.46849 4.25641 3.03706 3.68213 3.87277 3.6757C4.54991 3.66998 5.22777 3.67427 5.90491 3.67498C5.94706 3.67498 5.98991 3.68427 6.07777 3.69427C5.9642 3.80213 5.87849 3.87713 5.79991 3.95855C5.58063 4.18427 5.5692 4.49284 5.76991 4.69998C5.97206 4.90927 6.2892 4.91998 6.51063 4.7057C6.85134 4.37713 7.1892 4.04427 7.51348 3.69927C7.80634 3.38855 7.80849 2.93498 7.51563 2.62213C7.18777 2.27213 6.84563 1.9357 6.4992 1.60427C6.28634 1.39998 5.96491 1.41641 5.77206 1.61927C5.57634 1.82498 5.57991 2.1307 5.78634 2.34784C5.86706 2.43284 5.95849 2.50927 6.04491 2.58927C6.03563 2.60641 6.02634 2.62284 6.01706 2.63998ZM14.7499 8.37855C14.8299 8.10641 14.6728 7.81498 14.4049 7.73784C14.0349 7.63213 13.6921 7.77641 13.5985 8.07784C13.4863 8.44141 13.7435 8.74641 14.1635 8.74713C14.4813 8.74855 14.6771 8.62498 14.7499 8.37855ZM5.25063 11.6336C5.17991 11.9043 5.33063 12.1807 5.59277 12.2614C5.95634 12.3736 6.3042 12.23 6.40277 11.9286C6.52349 11.5607 6.26134 11.2528 5.82777 11.2536C5.5142 11.2536 5.31563 11.3843 5.25063 11.6336ZM10.2371 9.49141C9.79634 9.31427 9.66063 9.17641 9.66063 8.93784C9.66063 8.71498 9.76491 8.57641 9.98063 8.57641C10.2371 8.57641 10.3492 8.72998 10.3571 9.02213H11.2456C11.2299 8.39927 10.9656 8.01498 10.3328 7.91498V7.66927C10.3328 7.56141 10.2363 7.46927 10.1163 7.46927H9.89991C9.79563 7.46927 9.70777 7.53855 9.69206 7.6307C9.6842 7.64641 9.6842 7.65355 9.6842 7.66927V7.90784C9.08348 8.02284 8.73134 8.4457 8.73134 9.02998C8.73134 9.69855 9.04348 10.0064 9.83634 10.3293C10.2449 10.5064 10.3649 10.6521 10.3649 10.9293C10.3649 11.16 10.2449 11.3214 10.0128 11.3214C9.70848 11.3214 9.62063 11.1136 9.6042 10.8214H8.68348C8.6992 11.4057 8.95563 11.8821 9.6842 11.99V12.3286C9.6842 12.3443 9.6842 12.3593 9.69206 12.375C9.70777 12.4671 9.79634 12.5364 9.89991 12.5364H10.1163C10.2363 12.5364 10.3328 12.4443 10.3328 12.3286V11.9828C11.0213 11.875 11.3178 11.4293 11.3178 10.8143C11.3178 10.1757 11.0056 9.80713 10.2371 9.49141Z" fill="#5A577A"/>
</svg>
