<svg width="30" height="30" viewBox="0 0 30 30" fill="none" xmlns="http://www.w3.org/2000/svg">
<g clip-path="url(#clip0_1260_1331)">
<path d="M28.374 24.6601C28.234 24.5601 28.084 24.4701 27.934 24.3901C27.784 24.3001 27.624 24.2101 27.474 24.1101C26.904 23.7001 26.564 23.0901 26.564 22.4201C26.564 21.7501 26.894 21.1401 27.464 20.7401C27.614 20.6301 27.774 20.5301 27.934 20.4401C28.074 20.3601 28.224 20.2801 28.364 20.1801C29.914 19.1401 30.444 17.1801 29.604 15.5301C29.194 14.7301 28.744 13.9401 28.244 13.1901C27.574 12.1801 26.464 11.5701 25.274 11.5701C24.714 11.5701 24.174 11.7001 23.654 11.9501C23.494 12.0301 23.344 12.1101 23.194 12.2001C23.024 12.3001 22.844 12.4001 22.664 12.4801C22.384 12.6001 22.084 12.6701 21.794 12.6701C20.734 12.6701 19.884 11.8901 19.774 10.8101C19.754 10.6301 19.754 10.4401 19.754 10.2401C19.754 10.1301 19.764 10.0201 19.754 9.91006C19.704 7.90006 18.154 6.36006 16.144 6.32006C15.724 6.31006 15.324 6.31006 14.944 6.31006C14.544 6.31006 14.164 6.31006 13.794 6.32006C11.824 6.37006 10.304 7.91006 10.244 9.89006V10.6701C10.184 11.8101 9.314 12.6701 8.214 12.6701C7.884 12.6701 7.554 12.5901 7.234 12.4301C7.114 12.3701 6.994 12.3001 6.864 12.2201L6.694 12.1301C6.034 11.7601 5.364 11.5701 4.704 11.5701C3.434 11.5701 2.294 12.2701 1.574 13.4801C1.214 14.0801 0.823997 14.7201 0.473997 15.3901C-0.496003 17.1901 0.0539966 19.2101 1.804 20.2901C1.894 20.3501 1.994 20.4001 2.104 20.4601C2.254 20.5501 2.394 20.6301 2.524 20.7201C3.104 21.1301 3.434 21.7401 3.434 22.4101C3.434 23.0801 3.114 23.6901 2.544 24.1001C2.404 24.1901 2.254 24.2801 2.094 24.3801C1.964 24.4501 1.834 24.5301 1.704 24.6101C0.423997 25.4501 -0.146003 26.5801 0.0539966 27.8701C0.163997 28.6301 0.383997 29.3401 0.693997 30.0001H1.814C1.424 29.3201 1.164 28.5501 1.034 27.7201C0.903997 26.8201 1.304 26.0801 2.254 25.4501C2.364 25.3701 2.474 25.3101 2.594 25.2401C2.784 25.1301 2.964 25.0301 3.124 24.9101C3.964 24.3201 4.444 23.4101 4.434 22.4101C4.434 21.4101 3.944 20.4901 3.094 19.9001C2.944 19.8001 2.784 19.7001 2.594 19.6001C2.494 19.5401 2.414 19.4901 2.334 19.4401C1.034 18.6401 0.643997 17.2001 1.354 15.8601C1.694 15.2201 2.074 14.5801 2.424 13.9901C2.974 13.0901 3.794 12.5701 4.704 12.5701C5.194 12.5701 5.694 12.7201 6.194 12.9901L6.364 13.0901C6.514 13.1801 6.654 13.2601 6.794 13.3301C7.244 13.5501 7.724 13.6701 8.214 13.6701C9.854 13.6701 11.154 12.4001 11.244 10.7101V9.92006C11.284 8.47006 12.394 7.36006 13.824 7.32006C14.174 7.31006 14.554 7.31006 14.944 7.31006C15.324 7.31006 15.714 7.31006 16.124 7.32006C17.584 7.35006 18.714 8.47006 18.754 9.93006C18.764 10.0301 18.754 10.1301 18.754 10.2401C18.754 10.4501 18.754 10.6701 18.784 10.9101C18.944 12.5101 20.214 13.6701 21.794 13.6701C22.224 13.6701 22.654 13.5701 23.074 13.3901C23.284 13.3001 23.484 13.1801 23.694 13.0701C23.824 12.9901 23.954 12.9201 24.094 12.8501C24.474 12.6701 24.874 12.5701 25.274 12.5701C26.134 12.5701 26.924 13.0101 27.404 13.7401C27.884 14.4601 28.324 15.2201 28.714 15.9901C29.314 17.1801 28.934 18.5901 27.804 19.3501C27.684 19.4301 27.554 19.5101 27.434 19.5801C27.254 19.6801 27.054 19.8001 26.884 19.9201C26.044 20.5101 25.564 21.4201 25.564 22.4201C25.564 23.4201 26.054 24.3401 26.904 24.9301C27.074 25.0401 27.254 25.1501 27.434 25.2601C27.564 25.3301 27.694 25.4001 27.814 25.4901C28.944 26.2501 29.314 27.6701 28.704 28.8601C28.514 29.2401 28.304 29.6201 28.084 30.0001H29.234C29.364 29.7701 29.484 29.5501 29.594 29.3201C30.444 27.6701 29.924 25.7101 28.374 24.6601ZM15.194 16.1501H15.064C11.554 16.1501 8.774 18.8901 8.734 22.3901C8.704 25.7401 11.504 28.6201 14.844 28.6801H14.954C18.444 28.6801 21.224 25.9501 21.264 22.4801C21.314 19.1101 18.534 16.2201 15.194 16.1501ZM14.964 27.6801H14.864C12.054 27.6301 9.714 25.2201 9.734 22.4001C9.764 19.4601 12.104 17.1601 15.064 17.1501H15.174C17.974 17.2101 20.304 19.6401 20.264 22.4601C20.224 25.3901 17.894 27.6801 14.964 27.6801Z" fill="#D0CFD9"/>
<path d="M4.62001 6.94405L4.60001 6.93105C4.42701 6.81605 4.43001 6.56305 4.60701 6.45205L9.57701 3.33105C11.28 2.26005 12.986 1.19005 14.689 0.119048C14.807 0.0450483 15.027 -0.0929517 15.327 0.0930483C18.025 1.79305 20.726 3.48905 23.427 5.18705L25.376 6.41005C25.4 6.42405 25.424 6.44105 25.456 6.46505C25.618 6.58105 25.614 6.82105 25.449 6.93205L25.417 6.95405C25.359 6.99505 25.311 7.02805 25.258 7.05905L23.171 8.37305C20.564 10.009 17.962 11.642 15.363 13.278C15.264 13.34 15.153 13.393 15.022 13.393C14.928 13.393 14.821 13.367 14.701 13.291C11.995 11.586 9.28701 9.88605 6.57701 8.18305L4.76301 7.03905C4.71701 7.01105 4.66901 6.98005 4.62001 6.94405Z" fill="#130F40"/>
<path d="M26.003 14.7489C25.947 14.7059 25.875 14.6559 25.784 14.5989L21.731 12.048C21.284 11.766 20.711 11.7659 20.264 12.0469L15.64 14.951C15.392 15.105 15.17 15.1679 14.94 15.1509C14.731 15.1369 14.558 15.044 14.402 14.944L9.785 12.0459C9.337 11.7649 8.764 11.765 8.316 12.048L7.648 12.47C6.609 13.125 5.567 13.779 4.527 14.428L4.476 14.458C4.247 14.601 4.027 14.739 3.891 14.925L3.858 14.9759C3.856 14.9799 3.837 15.008 3.82 15.048L3.806 15.0799C3.797 15.1059 3.793 15.126 3.793 15.137C3.789 15.203 3.795 15.2459 3.812 15.2799L3.824 15.303L3.836 15.3229C3.971 15.5559 4.223 15.713 4.49 15.878L4.611 15.953C7.523 17.7789 10.431 19.6049 13.339 21.4349L14.761 22.346C14.906 22.438 15.095 22.439 15.242 22.347L15.512 22.1779C15.879 21.9719 16.224 21.7489 16.575 21.5189C16.741 21.4119 16.904 21.307 17.067 21.201L17.645 20.839C19.439 19.719 21.229 18.5959 23.017 17.4699L25.809 15.715C25.973 15.612 26.087 15.525 26.148 15.411C26.265 15.187 26.206 14.9139 26.003 14.7489Z" fill="#130F40"/>
<path d="M19.0259 3.54199H14.7599C14.6269 3.54199 14.5099 3.60999 14.5099 3.68599V4.21999C14.5099 4.29999 14.6219 4.36399 14.7599 4.36399H17.8509V6.14899C17.8509 6.22899 17.9629 6.29299 18.1009 6.29299H19.0259C19.0919 6.29299 19.1559 6.27799 19.2029 6.25099C19.2499 6.22399 19.2759 6.18699 19.2759 6.14899V3.68599C19.2759 3.60699 19.1639 3.54199 19.0259 3.54199Z" fill="white"/>
<path d="M15.288 7.62895H12.197V5.84395C12.197 5.80595 12.171 5.76895 12.124 5.74195C12.077 5.71495 12.013 5.69995 11.947 5.69995H11.022C10.956 5.69995 10.892 5.71495 10.845 5.74195C10.798 5.76895 10.772 5.80595 10.772 5.84395V8.30695C10.772 8.38695 10.884 8.45095 11.022 8.45095H15.288C15.354 8.45095 15.418 8.43595 15.465 8.40895C15.512 8.38195 15.538 8.34495 15.538 8.30695V7.77295C15.538 7.69395 15.426 7.62895 15.288 7.62895Z" fill="white"/>
<path d="M13.261 3.57807C13.197 3.56707 13.129 3.57107 13.071 3.59007L12.585 3.74307C12.464 3.78107 12.419 3.86907 12.485 3.93907L16.639 8.34707C16.671 8.38107 16.724 8.40607 16.788 8.41607C16.852 8.42707 16.92 8.42307 16.978 8.40407L17.464 8.25107C17.486 8.24407 17.505 8.23607 17.521 8.22607C17.597 8.18207 17.618 8.11207 17.564 8.05507L13.41 3.64707C13.378 3.61407 13.324 3.58907 13.261 3.57807Z" fill="white"/>
</g>
<defs>
<clipPath id="clip0_1260_1331">
<rect width="30" height="30" fill="white"/>
</clipPath>
</defs>
</svg>
