<svg width="20" height="20" viewBox="0 0 20 20" fill="none" xmlns="http://www.w3.org/2000/svg">
<path d="M11.6364 8.26502L12.0392 8.66787C12.0678 8.69645 12.1071 8.71287 12.1485 8.71287C12.1892 8.71287 12.2285 8.69645 12.2578 8.66787L14.1142 6.80859C14.1735 6.74787 14.1735 6.65073 14.1135 6.59073L12.2571 4.73145C12.1992 4.67359 12.0978 4.67359 12.0399 4.73145L11.6371 5.13502C11.5764 5.19573 11.5764 5.29216 11.6371 5.35287L12.9814 6.70002L11.6371 8.04787C11.5764 8.10787 11.5764 8.2043 11.6364 8.26502Z" fill="#9CA3AF"/>
<path d="M7.15352 6.6993L8.4978 5.35216C8.52637 5.32359 8.5428 5.28359 8.5428 5.24287C8.5428 5.20216 8.52637 5.16287 8.4978 5.13359L8.09495 4.73002C8.06637 4.70145 8.02709 4.68502 7.98566 4.68502C7.94495 4.68502 7.90566 4.70145 7.87637 4.73002L6.0228 6.59073C5.96209 6.65145 5.96209 6.74787 6.0228 6.80859L7.87923 8.66787C7.9078 8.69645 7.94709 8.71287 7.98852 8.71287C8.02923 8.71287 8.06852 8.69645 8.0978 8.66787L8.50066 8.2643C8.55923 8.20359 8.55923 8.10645 8.49923 8.04645L7.15352 6.6993Z" fill="#9CA3AF"/>
<path d="M10.2042 8.42502L10.7978 5.13859C10.8335 4.9443 10.7042 4.75716 10.5099 4.72216L10.3878 4.70002C10.1935 4.6643 10.0071 4.79359 9.97209 4.98859L9.37852 8.27502C9.3428 8.4693 9.47209 8.65645 9.66637 8.69145L9.78852 8.71359C9.9828 8.74788 10.1692 8.61859 10.2042 8.42502Z" fill="#9CA3AF"/>
<path d="M18.2142 12.9364C17.9214 12.7679 17.6271 12.5993 17.3335 12.4314C17.0014 12.2414 16.6692 12.0522 16.3378 11.86C16.3264 11.8536 16.3142 11.8479 16.3007 11.8422C16.2549 11.8214 16.1985 11.795 16.1678 11.7272L16.1535 11.6979L16.1821 11.6814C16.4064 11.5529 16.6314 11.4243 16.8549 11.2972C17.3149 11.0343 17.7742 10.7736 18.2307 10.5093C18.4435 10.3857 18.5657 10.2022 18.5664 10.0043C18.5671 9.80716 18.4464 9.6243 18.2364 9.50145C18.0464 9.39073 17.8557 9.28216 17.6642 9.17359C17.5607 9.11502 17.4564 9.05573 17.3528 8.99573L16.1085 8.28216L16.2449 8.20145C16.2842 8.17788 16.3178 8.15787 16.3521 8.13787C16.5499 8.02502 16.7478 7.91216 16.9457 7.79859C17.3792 7.55145 17.8128 7.3043 18.2442 7.0543C18.4521 6.93359 18.5714 6.75216 18.5707 6.55502C18.5699 6.35859 18.4507 6.17716 18.2428 6.05787C17.0221 5.35859 15.8014 4.66002 14.5799 3.96145C13.1628 3.15002 11.7449 2.3393 10.3292 1.52716C10.2149 1.46145 10.1064 1.42859 9.9978 1.42859C9.8878 1.42859 9.77637 1.46287 9.6578 1.53002C7.1628 2.96287 4.58495 4.43859 1.77637 6.04359C1.53495 6.18145 1.4278 6.34073 1.42923 6.56002C1.43066 6.7793 1.53995 6.93787 1.7828 7.07359C2.38495 7.41073 2.9928 7.76145 3.57995 8.10145L3.66066 8.14787C3.6728 8.15502 3.68495 8.16073 3.6978 8.16573C3.74495 8.18645 3.8028 8.21216 3.82566 8.28645L3.83423 8.31359L3.27709 8.63216C2.77066 8.92216 2.26423 9.21145 1.7578 9.49859C1.53137 9.62716 1.42709 9.7893 1.42923 10.0093C1.43137 10.2236 1.53495 10.3807 1.75495 10.5043C2.01423 10.6507 2.27209 10.7986 2.53066 10.9464L3.88709 11.7229L3.83423 11.7543C3.8028 11.7722 3.77637 11.7893 3.75066 11.805C3.71352 11.8279 3.68066 11.8479 3.6478 11.8664L3.16423 12.1443C2.7128 12.4043 2.24637 12.6722 1.78495 12.9314C1.54137 13.0679 1.43209 13.2264 1.42995 13.4436C1.42852 13.6679 1.53637 13.8243 1.79137 13.9707C4.29495 15.4 6.96209 16.9243 9.62638 18.4572C9.88709 18.6072 10.1071 18.6086 10.3607 18.4636C12.1835 17.4157 14.0078 16.3707 15.8328 15.3264L18.2099 13.9657C18.4399 13.8343 18.5714 13.6457 18.5721 13.4493C18.5714 13.2543 18.4414 13.0672 18.2142 12.9364ZM3.28923 6.69716C3.25209 6.67573 3.21566 6.65359 3.17209 6.62645L3.05066 6.55287L4.84566 5.52716C6.50995 4.57573 8.17495 3.6243 9.83852 2.67073C9.9278 2.62073 10.0114 2.5843 10.1335 2.6543C11.9842 3.71716 13.8371 4.77645 15.6885 5.83573L16.8207 6.48359C16.8314 6.4893 16.8414 6.49716 16.8514 6.5043L16.8857 6.52859L16.8814 6.55073C16.8699 6.61573 16.8221 6.63645 16.7871 6.65145C16.7778 6.65502 16.7692 6.6593 16.7614 6.66359L15.1278 7.59859C13.4835 8.5393 11.8399 9.48002 10.1978 10.4236C10.1257 10.465 10.0628 10.4857 9.99923 10.4857C9.93423 10.4857 9.8678 10.4643 9.79138 10.42C8.08066 9.43645 6.33852 8.44073 4.65423 7.47716L3.28923 6.69716ZM3.2578 10.1264C3.22637 10.1086 3.19566 10.0893 3.15637 10.0657L3.05137 10L3.80566 9.56716C4.13923 9.37573 4.48352 9.17859 4.82066 8.98002C4.92495 8.91859 5.0078 8.91859 5.11566 8.98073C5.73209 9.33573 6.34923 9.6893 6.96709 10.0429C7.83923 10.5429 8.74137 11.0593 9.62566 11.5722C9.87495 11.7157 10.0957 11.715 10.3435 11.5736C11.1228 11.1236 11.9042 10.6764 12.6849 10.2286C13.4028 9.81645 14.1214 9.40502 14.8385 8.99145C14.9421 8.93216 15.0335 8.91073 15.1642 8.98716C15.5492 9.21287 15.9449 9.43573 16.3285 9.65216C16.4735 9.73359 16.6185 9.81573 16.7635 9.89787C16.7871 9.91145 16.8107 9.92502 16.8414 9.94359L16.9442 10.005L16.7249 10.1314C16.4792 10.2722 16.2449 10.4064 16.0107 10.5407L14.5478 11.3772C13.0849 12.2136 11.6228 13.05 10.1607 13.8864C10.1014 13.9214 10.0471 13.9429 9.99066 13.9429C9.94709 13.9429 9.90209 13.93 9.85066 13.9C8.09923 12.895 6.34637 11.8929 4.5928 10.89L3.2578 10.1264ZM16.8842 13.4472C16.8592 13.5136 16.8092 13.5364 16.7692 13.5543C16.7592 13.5586 16.7499 13.5636 16.7399 13.5686L14.6685 14.7543C13.1771 15.6079 11.6849 16.4622 10.1949 17.3172C10.1221 17.3593 10.0592 17.38 9.99637 17.38C9.93566 17.38 9.87495 17.3607 9.80566 17.3207C7.8678 16.2079 5.89495 15.0807 3.98637 13.99L3.25852 13.5743C3.22709 13.5564 3.19637 13.5372 3.15709 13.5129L3.04995 13.4457L3.52566 13.1736C3.9828 12.9122 4.41566 12.665 4.85066 12.41C4.95637 12.3479 5.02923 12.3793 5.1128 12.4279C5.58923 12.7007 6.06637 12.9743 6.5428 13.2472C7.55352 13.8257 8.59852 14.4236 9.62352 15.0172C9.8728 15.1593 10.0935 15.1614 10.3421 15.0207C11.0264 14.6257 11.7114 14.2322 12.3971 13.8393C13.2057 13.3757 14.0135 12.9129 14.8192 12.4464C14.9521 12.3679 15.0528 12.3679 15.1935 12.4507C15.6157 12.6957 16.0478 12.94 16.4664 13.1772L16.8935 13.4186L16.8842 13.4472Z" fill="#9CA3AF"/>
</svg>
