<svg width="30" height="30" viewBox="0 0 30 30" fill="none" xmlns="http://www.w3.org/2000/svg">
<g clip-path="url(#clip0_1331_2999)">
<mask id="mask0_1331_2999" style="mask-type:luminance" maskUnits="userSpaceOnUse" x="0" y="0" width="30" height="30">
<path d="M30 0H0V30H30V0Z" fill="white"/>
</mask>
<g mask="url(#mask0_1331_2999)">
<path d="M28.3901 24.6601C28.2501 24.5601 28.1001 24.4701 27.9501 24.3901C27.8001 24.3001 27.6401 24.2101 27.4901 24.1101C26.9201 23.7001 26.5801 23.0901 26.5801 22.4201C26.5801 21.7501 26.9101 21.1401 27.4801 20.7401C27.6301 20.6301 27.7901 20.5301 27.9501 20.4401C28.0901 20.3601 28.2401 20.2801 28.3801 20.1801C29.9301 19.1401 30.4601 17.1801 29.6201 15.5301C29.2101 14.7301 28.7601 13.9401 28.2601 13.1901C27.5901 12.1801 26.4801 11.5701 25.2901 11.5701C24.7301 11.5701 24.1901 11.7001 23.6701 11.9501C23.5101 12.0301 23.3601 12.1101 23.2101 12.2001C23.0401 12.3001 22.8601 12.4001 22.6801 12.4801C22.4001 12.6001 22.1001 12.6701 21.8101 12.6701C20.7501 12.6701 19.9001 11.8901 19.7901 10.8101C19.7701 10.6301 19.7701 10.4401 19.7701 10.2401C19.7701 10.1301 19.7801 10.0201 19.7701 9.91006C19.7201 7.90006 18.1701 6.36006 16.1601 6.32006C15.7401 6.31006 15.3401 6.31006 14.9601 6.31006C14.5601 6.31006 14.1801 6.31006 13.8101 6.32006C11.8401 6.37006 10.3201 7.91006 10.2601 9.89006V10.6701C10.2001 11.8101 9.33011 12.6701 8.23011 12.6701C7.90011 12.6701 7.57011 12.5901 7.25011 12.4301C7.13011 12.3701 7.01011 12.3001 6.88011 12.2201L6.71011 12.1301C6.05011 11.7601 5.38011 11.5701 4.72011 11.5701C3.45011 11.5701 2.31011 12.2701 1.59011 13.4801C1.23011 14.0801 0.84011 14.7201 0.49011 15.3901C-0.47989 17.1901 0.0701098 19.2101 1.82011 20.2901C1.91011 20.3501 2.01011 20.4001 2.12011 20.4601C2.27011 20.5501 2.41011 20.6301 2.54011 20.7201C3.12011 21.1301 3.45011 21.7401 3.45011 22.4101C3.45011 23.0801 3.13011 23.6901 2.56011 24.1001C2.42011 24.1901 2.27011 24.2801 2.11011 24.3801C1.98011 24.4501 1.85011 24.5301 1.72011 24.6101C0.44011 25.4501 -0.12989 26.5801 0.0701099 27.8701C0.18011 28.6301 0.40011 29.3401 0.71011 30.0001H1.83011C1.44011 29.3201 1.18011 28.5501 1.05011 27.7201C0.92011 26.8201 1.32011 26.0801 2.27011 25.4501C2.38011 25.3701 2.49011 25.3101 2.61011 25.2401C2.80011 25.1301 2.98011 25.0301 3.14011 24.9101C3.98011 24.3201 4.46011 23.4101 4.45011 22.4101C4.45011 21.4101 3.96011 20.4901 3.11011 19.9001C2.96011 19.8001 2.80011 19.7001 2.61011 19.6001C2.51011 19.5401 2.43011 19.4901 2.35011 19.4401C1.05011 18.6401 0.66011 17.2001 1.37011 15.8601C1.71011 15.2201 2.09011 14.5801 2.44011 13.9901C2.99011 13.0901 3.81011 12.5701 4.72011 12.5701C5.21011 12.5701 5.71011 12.7201 6.21011 12.9901L6.38011 13.0901C6.53011 13.1801 6.67011 13.2601 6.81011 13.3301C7.26011 13.5501 7.74011 13.6701 8.23011 13.6701C9.87011 13.6701 11.1701 12.4001 11.2601 10.7101V9.92006C11.3001 8.47006 12.4101 7.36006 13.8401 7.32006C14.1901 7.31006 14.5701 7.31006 14.9601 7.31006C15.3401 7.31006 15.7301 7.31006 16.1401 7.32006C17.6001 7.35006 18.7301 8.47006 18.7701 9.93006C18.7801 10.0301 18.7701 10.1301 18.7701 10.2401C18.7701 10.4501 18.7701 10.6701 18.8001 10.9101C18.9601 12.5101 20.2301 13.6701 21.8101 13.6701C22.2401 13.6701 22.6701 13.5701 23.0901 13.3901C23.3001 13.3001 23.5001 13.1801 23.7101 13.0701C23.8401 12.9901 23.9701 12.9201 24.1101 12.8501C24.4901 12.6701 24.8901 12.5701 25.2901 12.5701C26.1501 12.5701 26.9401 13.0101 27.4201 13.7401C27.9001 14.4601 28.3401 15.2201 28.7301 15.9901C29.3301 17.1801 28.9501 18.5901 27.8201 19.3501C27.7001 19.4301 27.5701 19.5101 27.4501 19.5801C27.2701 19.6801 27.0701 19.8001 26.9001 19.9201C26.0601 20.5101 25.5801 21.4201 25.5801 22.4201C25.5801 23.4201 26.0701 24.3401 26.9201 24.9301C27.0901 25.0401 27.2701 25.1501 27.4501 25.2601C27.5801 25.3301 27.7101 25.4001 27.8301 25.4901C28.9601 26.2501 29.3301 27.6701 28.7201 28.8601C28.5301 29.2401 28.3201 29.6201 28.1001 30.0001H29.2501C29.3801 29.7701 29.5001 29.5501 29.6101 29.3201C30.4601 27.6701 29.9401 25.7101 28.3901 24.6601ZM15.2101 16.1501H15.0801C11.5701 16.1501 8.79011 18.8901 8.75011 22.3901C8.72011 25.7401 11.5201 28.6201 14.8601 28.6801H14.9701C18.4601 28.6801 21.2401 25.9501 21.2801 22.4801C21.3301 19.1101 18.5501 16.2201 15.2101 16.1501ZM14.9801 27.6801H14.8801C12.0701 27.6301 9.73011 25.2201 9.75011 22.4001C9.78011 19.4601 12.1201 17.1601 15.0801 17.1501H15.1901C17.9901 17.2101 20.3201 19.6401 20.2801 22.4601C20.2401 25.3901 17.9101 27.6801 14.9801 27.6801Z" fill="#5A577A"/>
<mask id="mask1_1331_2999" style="mask-type:luminance" maskUnits="userSpaceOnUse" x="6" y="0" width="18" height="23">
<path d="M24 0H6V23H24V0Z" fill="white"/>
</mask>
<g mask="url(#mask1_1331_2999)">
<path d="M20.421 0H19.703C18.801 0.01 17.86 0.01 16.92 0.01H16.445C15.514 0.01 14.612 0.01 13.817 0H13.545C12.662 0 11.935 0.278 11.276 0.93C11.218 0.978 11.16 1.035 11.101 1.093C10.829 1.381 10.539 1.658 10.238 1.946C9.986 2.195 9.714 2.453 9.453 2.712C9.065 3.086 8.667 3.46 8.25 3.833C7.862 4.207 7.455 4.581 7.057 4.945C6.485 5.482 6.155 6.105 6.048 6.843V6.872C6.01 7.044 6 7.226 6 7.418C6.01 8.932 6 10.437 6 11.961V19.953C6.252 21.706 7.649 22.962 9.462 23H20.421C20.79 23 21.11 22.952 21.439 22.866C22.991 22.425 23.999 21.045 23.999 19.368V3.622C24 1.562 22.468 0.019 20.421 0Z" fill="#E8E7EC"/>
<path d="M15.795 14.107L15.679 14.059C15.243 13.906 14.864 13.752 14.515 13.561C14.253 13.408 14.156 13.254 14.175 13.015C14.224 12.795 14.311 12.507 14.66 12.402C15.048 12.297 15.436 12.354 15.814 12.594C16.153 12.814 16.522 12.757 16.716 12.46C16.92 12.163 16.832 11.808 16.503 11.569C16.251 11.397 15.999 11.301 15.766 11.224L15.62 11.176V10.965C15.62 10.908 15.63 10.85 15.63 10.793C15.63 10.697 15.63 10.592 15.63 10.486C15.601 10.16 15.339 9.92102 15 9.92102C14.661 9.92102 14.408 10.161 14.379 10.477C14.369 10.621 14.35 10.764 14.379 10.908C14.418 11.128 14.321 11.205 14.137 11.291C13.419 11.569 13.022 12.105 12.934 12.911C12.866 13.639 13.167 14.214 13.836 14.617C14.234 14.837 14.68 15.029 15.252 15.221L15.397 15.288C15.959 15.508 16.037 15.892 15.998 16.17C15.94 16.63 15.542 17.033 15.086 17.071C14.524 17.109 14.126 17.023 13.767 16.793C13.631 16.707 13.496 16.659 13.35 16.659C13.301 16.659 13.263 16.659 13.214 16.659C13.059 16.697 12.923 16.803 12.826 16.956C12.642 17.263 12.748 17.608 13.117 17.838C13.447 18.049 13.806 18.193 14.203 18.279L14.368 18.317V18.47C14.368 18.614 14.368 18.758 14.378 18.892C14.397 19.247 14.65 19.486 14.979 19.486C15.338 19.486 15.6 19.246 15.629 18.921C15.639 18.787 15.639 18.662 15.629 18.547C15.6 18.327 15.639 18.212 15.901 18.097C16.745 17.762 17.298 16.88 17.259 15.969C17.201 15.084 16.707 14.452 15.795 14.107Z" fill="#07090B"/>
<path d="M13.4091 2.13702C13.4091 1.99302 13.2931 1.90702 13.1571 1.93602C12.9141 1.97402 12.7011 2.08002 12.4971 2.27102C12.4191 2.35702 12.3421 2.43402 12.2451 2.52002C12.0121 2.75002 11.7891 2.97002 11.5571 3.20002C10.6451 4.08202 9.74311 4.96303 8.85111 5.82603C8.66711 5.99902 8.48311 6.17202 8.30811 6.35402C8.11411 6.54602 7.93011 6.75602 7.89111 7.04402C7.89111 7.11102 7.93011 7.17802 7.99811 7.17802C8.55111 7.20702 9.10411 7.23502 9.64711 7.26402C10.2391 7.29302 10.8401 7.32202 11.4121 7.35002C11.7031 7.36902 11.9741 7.34002 12.1971 7.26402C12.9631 7.02402 13.4191 6.34402 13.4191 5.43402V2.14702L13.4091 2.13702Z" fill="#07090B"/>
<path d="M19.7619 6.79504H16.5329C16.1259 6.79504 15.8149 7.11104 15.8149 7.50404C15.8149 7.89704 16.1249 8.21304 16.5329 8.21304H19.7619C20.1599 8.21304 20.4799 7.89704 20.4799 7.50404C20.4799 7.11104 20.1599 6.79504 19.7619 6.79504Z" fill="#07090B"/>
<path d="M19.7619 3.92004H16.5329C16.1259 3.92004 15.8149 4.23604 15.8149 4.62904C15.8149 5.02204 16.1249 5.33804 16.5329 5.33804H19.7619C20.1599 5.33804 20.4799 5.02204 20.4799 4.62904C20.4799 4.23604 20.1599 3.92004 19.7619 3.92004Z" fill="#07090B"/>
</g>
</g>
</g>
<defs>
<clipPath id="clip0_1331_2999">
<rect width="30" height="30" fill="white"/>
</clipPath>
</defs>
</svg>
