<svg width="30" height="30" viewBox="0 0 30 30" fill="none" xmlns="http://www.w3.org/2000/svg">
<g clip-path="url(#clip0_1331_1401)">
<path d="M28.62 21.43C28.25 22.16 27.83 22.84 27.4 23.53C26.65 24.69 25.46 25.34 24.12 25.34C23.47 25.34 22.8 25.18 22.19 24.85C22.11 24.81 21.99 24.73 21.91 24.69L21.87 24.67C21.75 24.59 21.63 24.53 21.48 24.47C21.34 24.39 21.18 24.36 21.02 24.36C20.47 24.36 20 24.81 19.96 25.38V26.19C19.86 28.28 18.24 29.92 16.17 29.98C16.01 30 15.85 30 15.71 30L15.22 29.98H15.1L14.69 30C14.13 30 13.62 29.96 13.17 29.86C11.11 29.45 10.11 28.07 10.05 25.54C10.03 24.85 9.58997 24.36 8.97997 24.36C8.76997 24.36 8.54997 24.43 8.34997 24.55C8.24997 24.59 8.18997 24.65 8.10997 24.67C7.95997 24.75 7.79997 24.85 7.61997 24.91C6.99997 25.21 6.38997 25.36 5.79997 25.36C5.07997 25.36 4.38997 25.14 3.78997 24.69C2.26997 23.53 1.29997 21.89 0.989972 19.93C0.789972 18.53 1.41997 17.23 2.79997 16.32C2.91997 16.26 3.01997 16.16 3.15997 16.09C3.29997 16.03 3.41997 15.95 3.49997 15.89C3.80997 15.69 3.98997 15.36 3.98997 14.98C3.98997 14.64 3.80997 14.31 3.47997 14.11C3.41997 14.05 3.31997 13.99 3.21997 13.93L3.17997 13.91C3.07997 13.86 2.97997 13.78 2.89997 13.74C0.989972 12.57 0.399972 10.4 1.45997 8.43C1.77997 7.8 2.12997 7.2 2.44997 6.69C3.23997 5.39 4.45997 4.66 5.83997 4.66C6.56997 4.66 7.26997 4.84 7.95997 5.23L8.14997 5.35C8.26997 5.39 8.34997 5.45 8.42997 5.49C8.60997 5.59 8.79997 5.64 8.95997 5.64C9.56997 5.64 10.01 5.17 10.03 4.54C10.05 4.46 10.05 4.36 10.05 4.28V3.87C10.09 1.93 11.45 0.36 13.32 0.08C13.52 0.04 13.7 0.02 13.9 0.02C14.35 0 14.84 0 15.34 0H16.03C18.2 0.04 19.88 1.72 19.96 3.89V4.64C20.02 5.21 20.47 5.64 21.02 5.64C21.18 5.64 21.34 5.59 21.5 5.51C21.65 5.47 21.77 5.37 21.91 5.31C22.03 5.23 22.19 5.15 22.36 5.07C22.92 4.8 23.51 4.66 24.12 4.66C25.44 4.66 26.63 5.31 27.38 6.43C27.83 7.11 28.25 7.82 28.62 8.57C29.55 10.36 28.96 12.49 27.28 13.62C27.14 13.72 26.98 13.8 26.88 13.89C26.73 13.97 26.59 14.05 26.47 14.11C26.17 14.31 26 14.64 26 14.98C26 15.36 26.17 15.69 26.49 15.89C26.61 15.95 26.73 16.03 26.84 16.09C26.98 16.2 27.14 16.28 27.28 16.38C28.96 17.53 29.55 19.66 28.62 21.43Z" fill="#EFCCF1"/>
<path d="M12.966 17.2031C15.943 17.2031 18.484 17.6751 18.484 19.5631C18.484 21.4511 15.959 21.9401 12.966 21.9401C9.989 21.9401 7.448 21.4681 7.448 19.5801C7.447 17.6921 9.973 17.2031 12.966 17.2031ZM17.725 16.0661C18.863 16.0451 20.086 16.2011 20.538 16.3121C21.496 16.5001 22.126 16.8851 22.387 17.4431C22.608 17.9021 22.608 18.4341 22.387 18.8921C21.988 19.7581 20.701 20.0371 20.2 20.1081C20.097 20.1241 20.014 20.0341 20.024 19.9301C20.28 17.5291 18.247 16.3911 17.721 16.1291C17.698 16.1171 17.694 16.0991 17.696 16.0881C17.699 16.0811 17.708 16.0681 17.725 16.0661ZM12.966 8.06006C14.993 8.06006 16.618 9.69306 16.618 11.7321C16.618 13.7701 14.993 15.4051 12.966 15.4051C10.939 15.4051 9.314 13.7701 9.314 11.7321C9.314 9.69306 10.939 8.06006 12.966 8.06006ZM17.923 8.67206C19.881 8.67206 21.418 10.5241 20.894 12.5881C20.541 13.9771 19.261 14.9001 17.836 14.8621C17.693 14.8581 17.552 14.8451 17.417 14.8211C17.318 14.8041 17.269 14.6921 17.325 14.6091C17.869 13.8041 18.179 12.8361 18.179 11.7971C18.179 10.7131 17.84 9.70206 17.252 8.87306C17.233 8.84706 17.219 8.80706 17.238 8.77806C17.254 8.75406 17.282 8.74106 17.309 8.73506C17.507 8.69506 17.71 8.67206 17.923 8.67206Z" fill="#AE00B9"/>
</g>
<defs>
<clipPath id="clip0_1331_1401">
<rect width="30" height="30" fill="white"/>
</clipPath>
</defs>
</svg>
