<svg width="30" height="30" viewBox="0 0 30 30" fill="none" xmlns="http://www.w3.org/2000/svg">
<g clip-path="url(#clip0_1260_1708)">
<path d="M28.374 24.6601C28.234 24.5601 28.084 24.4701 27.934 24.3901C27.784 24.3001 27.624 24.2101 27.474 24.1101C26.904 23.7001 26.564 23.0901 26.564 22.4201C26.564 21.7501 26.894 21.1401 27.464 20.7401C27.614 20.6301 27.774 20.5301 27.934 20.4401C28.074 20.3601 28.224 20.2801 28.364 20.1801C29.914 19.1401 30.444 17.1801 29.604 15.5301C29.194 14.7301 28.744 13.9401 28.244 13.1901C27.574 12.1801 26.464 11.5701 25.274 11.5701C24.714 11.5701 24.174 11.7001 23.654 11.9501C23.494 12.0301 23.344 12.1101 23.194 12.2001C23.024 12.3001 22.844 12.4001 22.664 12.4801C22.384 12.6001 22.084 12.6701 21.794 12.6701C20.734 12.6701 19.884 11.8901 19.774 10.8101C19.754 10.6301 19.754 10.4401 19.754 10.2401C19.754 10.1301 19.764 10.0201 19.754 9.91006C19.704 7.90006 18.154 6.36006 16.144 6.32006C15.724 6.31006 15.324 6.31006 14.944 6.31006C14.544 6.31006 14.164 6.31006 13.794 6.32006C11.824 6.37006 10.304 7.91006 10.244 9.89006V10.6701C10.184 11.8101 9.314 12.6701 8.214 12.6701C7.884 12.6701 7.554 12.5901 7.234 12.4301C7.114 12.3701 6.994 12.3001 6.864 12.2201L6.694 12.1301C6.034 11.7601 5.364 11.5701 4.704 11.5701C3.434 11.5701 2.294 12.2701 1.574 13.4801C1.214 14.0801 0.823997 14.7201 0.473997 15.3901C-0.496003 17.1901 0.0539966 19.2101 1.804 20.2901C1.894 20.3501 1.994 20.4001 2.104 20.4601C2.254 20.5501 2.394 20.6301 2.524 20.7201C3.104 21.1301 3.434 21.7401 3.434 22.4101C3.434 23.0801 3.114 23.6901 2.544 24.1001C2.404 24.1901 2.254 24.2801 2.094 24.3801C1.964 24.4501 1.834 24.5301 1.704 24.6101C0.423997 25.4501 -0.146003 26.5801 0.0539966 27.8701C0.163997 28.6301 0.383997 29.3401 0.693997 30.0001H29.234C29.364 29.7701 29.484 29.5501 29.594 29.3201C30.444 27.6701 29.924 25.7101 28.374 24.6601ZM14.964 27.6801H14.864C12.054 27.6301 9.714 25.2201 9.734 22.4001C9.764 19.4601 12.104 17.1601 15.064 17.1501H15.174C17.974 17.2101 20.304 19.6401 20.264 22.4601C20.224 25.3901 17.894 27.6801 14.964 27.6801Z" fill="#EFCCF1"/>
<path d="M4.62001 6.94405L4.60001 6.93105C4.42701 6.81605 4.43001 6.56305 4.60701 6.45205L9.57701 3.33105C11.28 2.26005 12.986 1.19005 14.689 0.119048C14.807 0.0450483 15.027 -0.0929517 15.327 0.0930483C18.025 1.79305 20.726 3.48905 23.427 5.18705L25.376 6.41005C25.4 6.42405 25.424 6.44105 25.456 6.46505C25.618 6.58105 25.614 6.82105 25.449 6.93205L25.417 6.95405C25.359 6.99505 25.311 7.02805 25.258 7.05905L23.171 8.37305C20.564 10.009 17.962 11.642 15.363 13.278C15.264 13.34 15.153 13.393 15.022 13.393C14.928 13.393 14.821 13.367 14.701 13.291C11.995 11.586 9.28701 9.88605 6.57701 8.18305L4.76301 7.03905C4.71701 7.01105 4.66901 6.98005 4.62001 6.94405Z" fill="#AE00B9"/>
<path d="M26.003 14.7491C25.947 14.7061 25.875 14.6561 25.784 14.5991L21.731 12.0481C21.284 11.7661 20.711 11.7661 20.264 12.0471L15.64 14.9511C15.392 15.1051 15.17 15.1681 14.94 15.1511C14.731 15.1371 14.558 15.0441 14.402 14.9441L9.785 12.0461C9.337 11.7651 8.764 11.7651 8.316 12.0481L7.648 12.4701C6.609 13.1251 5.567 13.7791 4.527 14.4281L4.476 14.4581C4.247 14.6011 4.027 14.7391 3.891 14.9251L3.858 14.9761C3.856 14.9801 3.837 15.0081 3.82 15.0481L3.806 15.0801C3.797 15.1061 3.793 15.1261 3.793 15.1371C3.789 15.2031 3.795 15.2461 3.812 15.2801L3.824 15.3031L3.836 15.3231C3.971 15.5561 4.223 15.7131 4.49 15.8781L4.611 15.9531C7.523 17.7791 10.431 19.6051 13.339 21.4351L14.761 22.3461C14.906 22.4381 15.095 22.4391 15.242 22.3471L15.512 22.1781C15.879 21.9721 16.224 21.7491 16.575 21.5191C16.741 21.4121 16.904 21.3071 17.067 21.2011L17.645 20.8391C19.439 19.7191 21.229 18.5961 23.017 17.4701L25.809 15.7151C25.973 15.6121 26.087 15.5251 26.148 15.4111C26.265 15.1871 26.206 14.9141 26.003 14.7491Z" fill="#AE00B9"/>
<path d="M19.0259 3.54199H14.7599C14.6269 3.54199 14.5099 3.60999 14.5099 3.68599V4.21999C14.5099 4.29999 14.6219 4.36399 14.7599 4.36399H17.8509V6.14899C17.8509 6.22899 17.9629 6.29299 18.1009 6.29299H19.0259C19.0919 6.29299 19.1559 6.27799 19.2029 6.25099C19.2499 6.22399 19.2759 6.18699 19.2759 6.14899V3.68599C19.2759 3.60699 19.1639 3.54199 19.0259 3.54199Z" fill="white"/>
<path d="M15.288 7.62895H12.197V5.84395C12.197 5.80595 12.171 5.76895 12.124 5.74195C12.077 5.71495 12.013 5.69995 11.947 5.69995H11.022C10.956 5.69995 10.892 5.71495 10.845 5.74195C10.798 5.76895 10.772 5.80595 10.772 5.84395V8.30695C10.772 8.38695 10.884 8.45095 11.022 8.45095H15.288C15.354 8.45095 15.418 8.43595 15.465 8.40895C15.512 8.38195 15.538 8.34495 15.538 8.30695V7.77295C15.538 7.69395 15.426 7.62895 15.288 7.62895Z" fill="white"/>
<path d="M13.261 3.57795C13.197 3.56695 13.129 3.57095 13.071 3.58995L12.585 3.74295C12.464 3.78095 12.419 3.86895 12.485 3.93895L16.639 8.34695C16.671 8.38095 16.724 8.40595 16.788 8.41595C16.852 8.42695 16.92 8.42295 16.978 8.40395L17.464 8.25095C17.486 8.24395 17.505 8.23595 17.521 8.22595C17.597 8.18195 17.618 8.11195 17.564 8.05495L13.41 3.64695C13.378 3.61395 13.324 3.58895 13.261 3.57795Z" fill="white"/>
</g>
<defs>
<clipPath id="clip0_1260_1708">
<rect width="30" height="30" fill="white"/>
</clipPath>
</defs>
</svg>
