<svg width="20" height="20" viewBox="0 0 20 20" fill="none" xmlns="http://www.w3.org/2000/svg">
<path d="M18.5171 15.425C18.3557 16.4693 17.4364 17.2843 16.3835 17.3378C15.6543 17.375 14.9214 17.3536 14.1907 17.3578C14.1207 17.3586 14.0507 17.3578 13.9814 17.3578C13.9728 17.3778 13.9642 17.3971 13.955 17.4171C14.0442 17.4964 14.14 17.5693 14.2214 17.6564C14.425 17.8743 14.4228 18.1828 14.2235 18.3843C14.0271 18.5828 13.7092 18.5936 13.4957 18.3871C13.15 18.055 12.8078 17.7186 12.4807 17.3686C12.1907 17.0586 12.2 16.6 12.4935 16.2921C12.82 15.95 13.1571 15.6164 13.4971 15.2871C13.7085 15.0821 14.0235 15.0907 14.225 15.2907C14.4228 15.4871 14.425 15.8036 14.2207 16.0186C14.1357 16.1078 14.0328 16.1814 13.9385 16.2621C13.95 16.2786 13.9607 16.295 13.9721 16.3121C14.0228 16.3157 14.0728 16.3228 14.1235 16.3228C14.7828 16.3236 15.4421 16.325 16.1014 16.3228C16.9607 16.32 17.5343 15.75 17.5421 14.8936C17.545 14.5636 17.5392 14.2343 17.5435 13.905C17.5485 13.5643 17.7607 13.3407 18.065 13.3443C18.3621 13.3478 18.5742 13.5686 18.5714 13.9014C18.565 14.41 18.5942 14.9264 18.5171 15.425ZM5.88139 3.67641C5.93139 3.67641 5.98139 3.68355 6.03139 3.68713C6.04282 3.70498 6.05354 3.72284 6.06496 3.7407C5.97354 3.81713 5.87354 3.8857 5.79068 3.9707C5.57925 4.18641 5.57211 4.49427 5.76568 4.69784C5.96568 4.90927 6.28496 4.92284 6.50639 4.70998C6.84782 4.38213 7.18496 4.04855 7.50996 3.70498C7.80425 3.39427 7.80996 2.9407 7.51854 2.62855C7.19139 2.27784 6.84854 1.94213 6.50282 1.60998C6.28854 1.40498 5.96853 1.41855 5.77425 1.61855C5.57711 1.82213 5.57711 2.13141 5.78282 2.34641C5.86425 2.43213 5.96139 2.50284 6.05068 2.5807C6.03996 2.60141 6.02925 2.62213 6.01782 2.64213C5.94711 2.64213 5.87711 2.64141 5.80639 2.64213C5.07496 2.64641 4.34282 2.62498 3.61354 2.66213C2.55996 2.71641 1.64211 3.53284 1.48211 4.57784C1.40568 5.07713 1.43496 5.59284 1.42996 6.10141C1.42711 6.43141 1.64354 6.65427 1.93925 6.6557C2.24354 6.65784 2.45354 6.4307 2.45782 6.0907C2.46068 5.76713 2.45711 5.44355 2.45854 5.11998C2.46354 4.2507 3.03354 3.6807 3.90354 3.67713C4.56282 3.67355 5.22211 3.6757 5.88139 3.67641ZM14.3378 13.7786H5.67354C4.56639 13.7786 3.81282 13.025 3.81282 11.9336V8.01284C3.82068 7.1057 4.41996 6.39855 5.31211 6.24427C5.42711 6.22141 5.54282 6.22141 5.65068 6.22141H14.3385C15.4378 6.22141 16.1835 6.97498 16.1835 8.07427C16.1914 9.35784 16.1914 10.6421 16.1835 11.9257C16.1828 13.025 15.4371 13.7786 14.3378 13.7786ZM6.43425 11.7643C6.43425 11.4643 6.19568 11.2571 5.84211 11.2493C5.51925 11.2493 5.32711 11.3721 5.24996 11.6186C5.14282 11.9871 5.41211 12.2871 5.84282 12.2871C6.18854 12.2793 6.43425 12.0721 6.43425 11.7643ZM11.3164 10.8107C11.3164 10.1728 11.0014 9.80355 10.2321 9.48855C9.79354 9.31141 9.65568 9.17355 9.65568 8.93498C9.65568 8.71213 9.76354 8.57355 9.97854 8.57355C10.2321 8.57355 10.3478 8.72713 10.355 9.01927H11.2471C11.2314 8.39641 10.9628 8.01213 10.3321 7.91213V7.66641C10.3321 7.55855 10.2321 7.46641 10.1171 7.46641H9.90211C9.79425 7.46641 9.70996 7.5357 9.69425 7.62784C9.68639 7.64355 9.68639 7.6507 9.68639 7.66641V7.90498C9.07925 8.01998 8.73282 8.44284 8.73282 9.02713C8.73282 9.6957 9.04068 10.0036 9.83211 10.3264C10.2393 10.5036 10.3628 10.6493 10.3628 10.9264C10.3628 11.1571 10.24 11.3186 10.0092 11.3186C9.70925 11.3186 9.61711 11.1107 9.60211 10.8186H8.67925C8.69496 11.4028 8.95568 11.8793 9.68639 11.9871V12.3257C9.68639 12.3407 9.68639 12.3564 9.69425 12.3721C9.70996 12.4643 9.79425 12.5336 9.90211 12.5336H10.1171C10.2321 12.5336 10.3321 12.4414 10.3321 12.3257V11.98C11.0164 11.8721 11.3164 11.4257 11.3164 10.8107ZM14.1535 8.7507C14.4764 8.7507 14.6685 8.62784 14.7457 8.38141C14.83 8.11213 14.6764 7.81998 14.4071 7.74355C14.0378 7.62855 13.6921 7.77427 13.6 8.07427C13.485 8.4357 13.7385 8.74284 14.1535 8.7507Z" fill="#14B9FF"/>
</svg>
