<svg width="20" height="20" viewBox="0 0 20 20" fill="none" xmlns="http://www.w3.org/2000/svg">
<path d="M15.9506 2.53497C16.2463 2.53497 16.4863 2.77568 16.4863 3.07068V17.0007C16.4863 17.2964 16.2456 17.5364 15.9506 17.5364H3.87132C3.57561 17.5364 3.33561 17.2957 3.33561 17.0007V3.07139C3.33561 2.77568 3.57632 2.53568 3.87132 2.53568L15.9506 2.53497ZM15.9506 1.46497H3.87132C2.98418 1.46497 2.26489 2.18425 2.26489 3.07139V17.0014C2.26489 17.8885 2.98418 18.6078 3.87132 18.6078H15.9506C16.8377 18.6078 17.557 17.8885 17.557 17.0014V3.07139C17.5563 2.18425 16.837 1.46497 15.9506 1.46497ZM5.59204 14.8614C5.41775 14.8614 5.25775 14.9321 5.14346 15.0464C5.02918 15.1607 4.95846 15.3185 4.95846 15.4928C4.95846 15.8428 5.24204 16.1264 5.59204 16.1264C5.76632 16.1264 5.92632 16.0557 6.04061 15.9414C6.15489 15.8271 6.22561 15.6693 6.22561 15.4928C6.22561 15.3185 6.15489 15.1614 6.04061 15.0464C5.92561 14.9321 5.76561 14.8614 5.59204 14.8614ZM10.8663 14.9578H7.69632C7.40061 14.9578 7.16061 15.1978 7.16061 15.4935C7.16061 15.7893 7.40061 16.0293 7.69632 16.0293H10.8663C11.162 16.0293 11.402 15.7893 11.402 15.4935C11.402 15.1978 11.162 14.9578 10.8663 14.9578ZM14.4706 14.9578H12.6378C12.342 14.9578 12.102 15.1978 12.102 15.4935C12.102 15.7893 12.342 16.0293 12.6378 16.0293H14.4706C14.7663 16.0293 15.0063 15.7893 15.0063 15.4935C15.0063 15.1978 14.7663 14.9578 14.4706 14.9578ZM10.072 9.96282C10.2628 9.96282 10.382 9.84282 10.3985 9.63139L10.5692 7.38639C10.5842 7.22925 10.5428 7.09497 10.4442 6.98639C10.3456 6.87782 10.2192 6.82282 10.0656 6.82282C9.91275 6.82282 9.78489 6.87782 9.68489 6.98782C9.59275 7.09425 9.55132 7.22711 9.56204 7.38354L9.73918 9.63068C9.75489 9.84211 9.87632 9.96282 10.072 9.96282ZM10.1077 10.2935H10.0285C9.88132 10.2935 9.76275 10.3378 9.67704 10.4228C9.59489 10.5043 9.55346 10.6207 9.55346 10.7685V10.8728C9.55346 11.0193 9.59418 11.1371 9.67918 11.2271C9.76489 11.3071 9.88204 11.3485 10.0285 11.3485H10.1077C10.2549 11.3485 10.3713 11.3064 10.4535 11.225C10.5392 11.1385 10.5835 11.02 10.5835 10.8728V10.7685C10.5835 10.62 10.5392 10.5028 10.4556 10.4257C10.3742 10.3385 10.257 10.2935 10.1077 10.2935ZM14.8163 10.7457L11.3849 5.01425C11.0906 4.52282 10.5735 4.22925 9.99989 4.22925C9.42704 4.22925 8.90918 4.52282 8.61561 5.01425L5.18346 10.7457C4.88132 11.2507 4.87346 11.8585 5.16418 12.37C5.45489 12.8828 5.97989 13.1885 6.56846 13.1885H13.432C14.0206 13.1885 14.5456 12.8821 14.8363 12.37C15.1263 11.8585 15.1185 11.2507 14.8163 10.7457ZM13.432 12.2743H6.56846C6.20061 12.2743 6.01989 12.0264 5.95989 11.9207C5.88489 11.7871 5.78632 11.5192 5.96846 11.2157L9.40061 5.48425C9.58418 5.17711 9.88061 5.14354 9.99989 5.14354C10.1192 5.14354 10.4163 5.17639 10.6006 5.48425L14.032 11.2157C14.2213 11.5307 14.1013 11.8135 14.0413 11.92C13.9813 12.0264 13.7999 12.2743 13.432 12.2743Z" fill="#5A577A"/>
</svg>
