<svg width="20" height="20" viewBox="0 0 20 20" fill="none" xmlns="http://www.w3.org/2000/svg">
<path d="M8.11702 16.865C7.50131 16.3222 6.91988 15.7643 6.38845 15.2057C5.42345 14.1914 4.20631 12.8122 3.34845 11.1307C2.88631 10.2264 2.66202 9.49287 2.61988 8.75359C2.52345 7.03002 3.03988 5.5693 4.15417 4.41359C5.64631 2.86502 7.46702 2.3143 9.56488 2.77287C11.842 3.27287 13.5763 5.1693 13.8806 7.49216C13.8992 7.63145 13.9513 7.73002 14.0556 7.82073C14.3356 8.06502 14.6099 8.31716 14.892 8.57573L15.1042 8.77002C15.1077 8.72145 15.1106 8.67573 15.1113 8.63073C15.1599 7.42287 14.9235 6.29216 14.4085 5.2693C13.5992 3.66287 12.3485 2.52716 10.6927 1.89359C9.88131 1.58359 9.06917 1.42859 8.26059 1.42859C7.37345 1.42859 6.49059 1.61573 5.61917 1.98859C3.79131 2.77145 2.52202 4.11573 1.84488 5.98359C1.26274 7.5893 1.29131 9.21787 1.92845 10.825C2.36559 11.9257 3.02345 13.0136 3.99774 14.2464C5.01559 15.5343 6.17488 16.7364 7.54274 17.9236C7.70631 18.0657 7.87345 18.2036 8.04702 18.3464C8.09274 18.3843 8.13917 18.4222 8.18559 18.4607V18.1107C8.18488 17.75 8.18488 17.39 8.18845 17.0293C8.18917 16.955 8.17059 16.9122 8.11702 16.865Z" fill="#9CA3AF"/>
<path d="M13.4335 9.32287L8.29488 14.0079L9.08631 14.8729L9.54774 14.455V14.6586C9.54774 14.7557 9.54774 14.8107 9.54845 14.8643L9.54774 15.465C9.54702 15.8972 9.54559 16.33 9.54917 16.7622C9.55702 17.8243 10.3049 18.5672 11.3656 18.5693C12.7435 18.5722 14.1206 18.5722 15.4985 18.5693C16.5677 18.5672 17.317 17.8193 17.3192 16.7507L17.3199 15.8736C17.3199 15.5229 17.3192 15.1714 17.3206 14.8207C17.3206 14.8136 17.3192 14.8057 17.3177 14.7979C17.312 14.7564 17.2999 14.6693 17.3835 14.61L17.4427 14.5679L17.7849 14.8722L18.5713 14.0072L13.4335 9.32287ZM16.1463 15.9936V16.7193C16.1463 17.175 15.9242 17.3964 15.4685 17.3964C14.7885 17.3964 14.1077 17.3972 13.4277 17.3972C12.7477 17.3972 12.067 17.3964 11.387 17.3964C10.9442 17.3964 10.7192 17.17 10.7192 16.7236L10.7185 13.5572C10.7185 13.4772 10.7185 13.38 10.8127 13.2943C11.5656 12.6122 12.3156 11.9286 13.0706 11.2393L13.4335 10.9079L14.612 11.98C15.0749 12.4029 15.5377 12.825 16.002 13.2443C16.1063 13.3386 16.1506 13.4357 16.1499 13.5707C16.1456 14.3793 16.1456 15.1864 16.1463 15.9936Z" fill="#9CA3AF"/>
<path d="M8.27631 5.50287C7.53631 5.50287 6.83988 5.79073 6.31559 6.31287C5.78845 6.83859 5.49845 7.53787 5.49845 8.28145C5.49845 9.80287 6.73988 11.0493 8.26631 11.0593C8.27274 11.0593 8.27988 11.0593 8.28631 11.0593C9.01702 11.0593 9.70559 10.7764 10.227 10.2622C10.7585 9.73787 11.0527 9.03716 11.0563 8.28859C11.0599 7.54645 10.7727 6.84859 10.2492 6.32216C9.72417 5.79502 9.02559 5.5043 8.28131 5.50216C8.27988 5.50287 8.27774 5.50287 8.27631 5.50287ZM9.88417 8.27502C9.88917 9.15787 9.17202 9.88216 8.28488 9.88859C8.28131 9.88859 8.27774 9.88859 8.27417 9.88859C7.85202 9.88859 7.45345 9.72359 7.14917 9.42216C6.84345 9.11859 6.67274 8.71573 6.66988 8.28787C6.66631 7.86359 6.83059 7.46216 7.13131 7.15716C7.43488 6.8493 7.83988 6.67859 8.27059 6.67573C8.27345 6.67573 8.27702 6.67573 8.28059 6.67573C8.70417 6.67573 9.10417 6.84073 9.40702 7.14073C9.71202 7.44359 9.88202 7.84645 9.88417 8.27502Z" fill="#9CA3AF"/>
<path d="M14.367 13.9914H12.5363V15.8236H14.367V13.9914Z" fill="#9CA3AF"/>
</svg>
