<svg width="30" height="30" viewBox="0 0 30 30" fill="none" xmlns="http://www.w3.org/2000/svg">
<g clip-path="url(#clip0_1331_1471)">
<path d="M28.374 24.6601C28.234 24.5601 28.084 24.4701 27.934 24.3901C27.784 24.3001 27.624 24.2101 27.474 24.1101C26.904 23.7001 26.564 23.0901 26.564 22.4201C26.564 21.7501 26.894 21.1401 27.464 20.7401C27.614 20.6301 27.774 20.5301 27.934 20.4401C28.074 20.3601 28.224 20.2801 28.364 20.1801C29.914 19.1401 30.444 17.1801 29.604 15.5301C29.194 14.7301 28.744 13.9401 28.244 13.1901C27.574 12.1801 26.464 11.5701 25.274 11.5701C24.714 11.5701 24.174 11.7001 23.654 11.9501C23.494 12.0301 23.344 12.1101 23.194 12.2001C23.024 12.3001 22.844 12.4001 22.664 12.4801C22.384 12.6001 22.084 12.6701 21.794 12.6701C20.734 12.6701 19.884 11.8901 19.774 10.8101C19.754 10.6301 19.754 10.4401 19.754 10.2401C19.754 10.1301 19.764 10.0201 19.754 9.91006C19.704 7.90006 18.154 6.36006 16.144 6.32006C15.724 6.31006 15.324 6.31006 14.944 6.31006C14.544 6.31006 14.164 6.31006 13.794 6.32006C11.824 6.37006 10.304 7.91006 10.244 9.89006V10.6701C10.184 11.8101 9.314 12.6701 8.214 12.6701C7.884 12.6701 7.554 12.5901 7.234 12.4301C7.114 12.3701 6.994 12.3001 6.864 12.2201L6.694 12.1301C6.034 11.7601 5.364 11.5701 4.704 11.5701C3.434 11.5701 2.294 12.2701 1.574 13.4801C1.214 14.0801 0.823997 14.7201 0.473997 15.3901C-0.496003 17.1901 0.0539966 19.2101 1.804 20.2901C1.894 20.3501 1.994 20.4001 2.104 20.4601C2.254 20.5501 2.394 20.6301 2.524 20.7201C3.104 21.1301 3.434 21.7401 3.434 22.4101C3.434 23.0801 3.114 23.6901 2.544 24.1001C2.404 24.1901 2.254 24.2801 2.094 24.3801C1.964 24.4501 1.834 24.5301 1.704 24.6101C0.423997 25.4501 -0.146003 26.5801 0.0539966 27.8701C0.163997 28.6301 0.383997 29.3401 0.693997 30.0001H1.814C1.424 29.3201 1.164 28.5501 1.034 27.7201C0.903997 26.8201 1.304 26.0801 2.254 25.4501C2.364 25.3701 2.474 25.3101 2.594 25.2401C2.784 25.1301 2.964 25.0301 3.124 24.9101C3.964 24.3201 4.444 23.4101 4.434 22.4101C4.434 21.4101 3.944 20.4901 3.094 19.9001C2.944 19.8001 2.784 19.7001 2.594 19.6001C2.494 19.5401 2.414 19.4901 2.334 19.4401C1.034 18.6401 0.643997 17.2001 1.354 15.8601C1.694 15.2201 2.074 14.5801 2.424 13.9901C2.974 13.0901 3.794 12.5701 4.704 12.5701C5.194 12.5701 5.694 12.7201 6.194 12.9901L6.364 13.0901C6.514 13.1801 6.654 13.2601 6.794 13.3301C7.244 13.5501 7.724 13.6701 8.214 13.6701C9.854 13.6701 11.154 12.4001 11.244 10.7101V9.92006C11.284 8.47006 12.394 7.36006 13.824 7.32006C14.174 7.31006 14.554 7.31006 14.944 7.31006C15.324 7.31006 15.714 7.31006 16.124 7.32006C17.584 7.35006 18.714 8.47006 18.754 9.93006C18.764 10.0301 18.754 10.1301 18.754 10.2401C18.754 10.4501 18.754 10.6701 18.784 10.9101C18.944 12.5101 20.214 13.6701 21.794 13.6701C22.224 13.6701 22.654 13.5701 23.074 13.3901C23.284 13.3001 23.484 13.1801 23.694 13.0701C23.824 12.9901 23.954 12.9201 24.094 12.8501C24.474 12.6701 24.874 12.5701 25.274 12.5701C26.134 12.5701 26.924 13.0101 27.404 13.7401C27.884 14.4601 28.324 15.2201 28.714 15.9901C29.314 17.1801 28.934 18.5901 27.804 19.3501C27.684 19.4301 27.554 19.5101 27.434 19.5801C27.254 19.6801 27.054 19.8001 26.884 19.9201C26.044 20.5101 25.564 21.4201 25.564 22.4201C25.564 23.4201 26.054 24.3401 26.904 24.9301C27.074 25.0401 27.254 25.1501 27.434 25.2601C27.564 25.3301 27.694 25.4001 27.814 25.4901C28.944 26.2501 29.314 27.6701 28.704 28.8601C28.514 29.2401 28.304 29.6201 28.084 30.0001H29.234C29.364 29.7701 29.484 29.5501 29.594 29.3201C30.444 27.6701 29.924 25.7101 28.374 24.6601ZM15.194 16.1501H15.064C11.554 16.1501 8.774 18.8901 8.734 22.3901C8.704 25.7401 11.504 28.6201 14.844 28.6801H14.954C18.444 28.6801 21.224 25.9501 21.264 22.4801C21.314 19.1101 18.534 16.2201 15.194 16.1501ZM14.964 27.6801H14.864C12.054 27.6301 9.714 25.2201 9.734 22.4001C9.764 19.4601 12.104 17.1601 15.064 17.1501H15.174C17.974 17.2101 20.304 19.6401 20.264 22.4601C20.224 25.3901 17.894 27.6801 14.964 27.6801Z" fill="#5A577A"/>
<path d="M26.3019 7.66832C26.3019 6.74396 25.7551 5.92374 24.9349 5.58525C24.5443 5.416 24.1407 5.42901 23.7892 5.44203H23.659C23.646 5.42901 23.646 5.416 23.633 5.40298C23.0471 4.25729 22.2529 3.22877 21.3156 2.39554C21.1984 2.27836 21.0682 2.16119 20.951 2.08308C20.6906 1.88779 20.4433 1.6925 20.1829 1.51023C20.0397 1.43211 19.9095 1.34098 19.7663 1.26286C19.4929 1.10663 19.2064 0.963422 18.907 0.820211C18.6336 0.677 18.3211 0.559826 18.0217 0.468692C17.9045 0.429634 17.7874 0.390577 17.6572 0.364538C17.4228 0.286423 17.1885 0.234346 16.9541 0.195288C16.6807 0.130192 16.4073 0.0911346 16.1209 0.0520769C16.1079 0.0650961 16.1079 0.0520769 16.0949 0.0520769C15.8215 0.0260385 15.535 0.0130192 15.2486 0H15.1314C14.9492 0 14.7539 0.0130192 14.5716 0.0260384C12.801 0.117173 11.1736 0.742095 9.76752 1.73156C9.72846 1.75759 9.71544 1.78363 9.67638 1.80967C9.45505 1.9659 9.23373 2.14817 9.03844 2.31742C8.89523 2.43459 8.76503 2.55177 8.63484 2.68196C7.82765 3.47613 7.12461 4.41352 6.60384 5.45505H6.33044C6.23931 5.44203 6.14817 5.42901 6.05704 5.44203C5.9659 5.44203 5.86175 5.45505 5.78363 5.46807C5.09361 5.54619 4.48171 6.01488 4.19529 6.67886C4.0651 6.9783 4 7.29076 4 7.60322V13.2796C4 13.54 4.02604 13.7874 4.11717 14.0347C4.4036 14.8679 5.15871 15.4408 5.97892 15.4408C6.12213 15.4538 6.26534 15.4538 6.46063 15.4408H6.56479C7.17669 16.7167 8.04898 17.8363 9.10353 18.7216C9.44203 19.0211 9.79355 19.2815 10.1581 19.5158C10.3404 19.646 10.5356 19.7502 10.7309 19.8543C10.9262 19.9715 11.1476 20.0756 11.3428 20.1798C11.7204 20.349 12.111 20.4923 12.5016 20.5964C12.5146 20.6094 12.5276 20.6094 12.5276 20.6094C12.6968 20.6745 12.8661 20.7136 13.0353 20.7526C13.7254 20.9219 14.4024 21 15.1184 21C15.5871 21 16.0558 20.9609 16.5245 20.8828C16.7068 20.8568 16.9151 20.8177 17.0973 20.7787C17.2796 20.7396 17.4489 20.6875 17.6181 20.6485C17.9306 20.5573 18.23 20.4662 18.5164 20.349C18.6596 20.2839 18.7898 20.2319 18.907 20.1798C19.9355 19.7371 20.8599 19.0862 21.6671 18.266C21.7843 18.1488 21.8884 18.0446 22.0056 17.9144C22.1748 17.7322 22.3311 17.5369 22.4873 17.3416C22.9039 16.8208 23.2815 16.261 23.5939 15.6491C23.7371 15.4668 23.8804 15.4148 24.1407 15.4148H24.1798C24.7396 15.4148 25.2734 15.2064 25.651 14.8159C26.0676 14.3862 26.3019 13.8134 26.3019 13.2015C26.3149 11.5741 26.3149 9.80347 26.3019 7.66832Z" fill="#E8E7EC"/>
<path d="M17.3838 11.1575L15.8866 6.49658H14.4024L12.9052 11.1575L11.6553 6.54866L11.6293 6.49658H9.57227L11.9938 15.1674H13.6343L15.1575 9.98573L16.6677 15.1674H18.3082L20.7167 6.5747L20.7297 6.49658H18.6597L17.3838 11.1575Z" fill="#07090B"/>
</g>
<defs>
<clipPath id="clip0_1331_1471">
<rect width="30" height="30" fill="white"/>
</clipPath>
</defs>
</svg>
