<svg width="22" height="22" viewBox="0 0 22 22" fill="none" xmlns="http://www.w3.org/2000/svg">
<path d="M5.98465 3.77851C5.98465 4.99716 4.997 5.98558 3.77757 5.98558C2.55815 5.98558 1.57129 4.99716 1.57129 3.77851C1.57129 2.55908 2.55893 1.57144 3.77836 1.57144C4.99779 1.57144 5.98465 2.55908 5.98465 3.77851ZM10.9999 1.57144C9.78122 1.57144 8.79279 2.55908 8.79279 3.77851C8.79279 4.99716 9.78043 5.98558 10.9999 5.98558C12.2193 5.98558 13.2069 4.99794 13.2069 3.77851C13.2069 2.55908 12.2185 1.57144 10.9999 1.57144ZM18.2214 5.9848C19.4408 5.9848 20.4284 4.99716 20.4284 3.77851C20.4284 2.55908 19.4408 1.57144 18.2214 1.57144C17.0027 1.57144 16.0143 2.55908 16.0143 3.77851C16.0151 4.99716 17.0027 5.9848 18.2214 5.9848ZM3.77836 8.79294C2.55893 8.79294 1.57129 9.78137 1.57129 11C1.57129 12.2187 2.55893 13.2071 3.77836 13.2071C4.99779 13.2071 5.98465 12.2187 5.98465 11C5.98465 9.78137 4.997 8.79294 3.77836 8.79294ZM10.9999 8.79294C9.78122 8.79294 8.79279 9.78059 8.79279 11C8.79279 12.2187 9.78043 13.2071 10.9999 13.2071C12.2193 13.2071 13.2069 12.2194 13.2069 11C13.2069 9.78137 12.2185 8.79294 10.9999 8.79294ZM18.2214 8.79294C17.0027 8.79294 16.0143 9.78059 16.0143 11C16.0143 12.2187 17.0019 13.2071 18.2214 13.2071C19.4408 13.2071 20.4284 12.2187 20.4284 11C20.4284 9.78137 19.4408 8.79294 18.2214 8.79294ZM3.77836 16.0152C2.55893 16.0152 1.57129 17.0029 1.57129 18.2215C1.57129 19.4409 2.55893 20.4286 3.77836 20.4286C4.99779 20.4286 5.98543 19.4409 5.98543 18.2215C5.98465 17.0029 4.997 16.0152 3.77836 16.0152ZM10.9999 16.0152C9.78122 16.0152 8.79279 17.0029 8.79279 18.2223C8.79279 19.4409 9.78122 20.4286 10.9999 20.4286C12.2185 20.4286 13.2069 19.4409 13.2069 18.2215C13.2069 17.0029 12.2185 16.0152 10.9999 16.0152ZM18.2214 16.0152C17.0027 16.0152 16.0143 17.0029 16.0143 18.2223C16.0143 19.4409 17.0019 20.4294 18.2214 20.4294C19.4408 20.4286 20.4284 19.4409 20.4284 18.2215C20.4284 17.0029 19.4408 16.0152 18.2214 16.0152Z" fill="white"/>
</svg>
