<svg width="20" height="20" viewBox="0 0 20 20" fill="none" xmlns="http://www.w3.org/2000/svg">
<path d="M15.9336 15.835C15.3451 15.7593 14.7272 15.6829 14.1108 15.5979C14.0101 15.5836 13.9336 15.5986 13.8522 15.6565C13.5729 15.8543 13.2765 16.025 12.9658 16.1686C12.8808 16.2079 12.8315 16.2622 12.7958 16.3493C12.5765 16.89 12.3465 17.4265 12.1286 17.9679C12.0215 18.235 11.8415 18.3836 11.5543 18.4336C10.4879 18.6215 9.42435 18.6179 8.36077 18.4143C8.13435 18.3708 7.98649 18.235 7.89934 18.0236C7.67935 17.49 7.45077 16.9593 7.23792 16.4229C7.18077 16.2786 7.09363 16.195 6.95792 16.1279C6.72434 16.0122 6.48792 15.8943 6.28006 15.74C6.0972 15.6043 5.92006 15.5865 5.70934 15.6179C5.1922 15.695 4.67363 15.7565 4.15577 15.8293C3.87149 15.8693 3.65292 15.78 3.46649 15.5558C2.7922 14.7436 2.27149 13.8479 1.91506 12.8536C1.82077 12.5915 1.85792 12.3729 2.02577 12.1579C2.37863 11.7065 2.72077 11.2479 3.07363 10.7965C3.15077 10.6972 3.18363 10.6043 3.1722 10.4743C3.14292 10.145 3.14434 9.81432 3.17434 9.48504C3.18292 9.39004 3.1622 9.32004 3.10506 9.24575C2.74292 8.77789 2.3872 8.30575 2.02434 7.83932C1.85506 7.62361 1.82149 7.40504 1.91577 7.14289C2.27077 6.15504 2.78792 5.26432 3.45577 4.45504C3.65149 4.21789 3.87792 4.12932 4.1772 4.17218C4.75006 4.25361 5.32506 4.32004 5.89792 4.40289C6.00149 4.41789 6.07649 4.39361 6.15506 4.33718C6.42934 4.14289 6.72077 3.97718 7.02577 3.83575C7.11792 3.79289 7.16934 3.73432 7.2072 3.64146C7.4222 3.11218 7.65363 2.59004 7.86077 2.05789C7.97435 1.76575 8.16435 1.60932 8.4722 1.55861C9.51435 1.38646 10.5529 1.37861 11.5929 1.57504C11.8515 1.62361 12.0158 1.76146 12.1129 2.00004C12.3286 2.52861 12.5529 3.05432 12.7658 3.58361C12.8172 3.71218 12.8872 3.80004 13.0172 3.85718C13.3072 3.98575 13.5786 4.15075 13.8386 4.33289C13.9251 4.39361 14.0043 4.41575 14.1136 4.40004C14.6801 4.31861 15.2493 4.25361 15.8158 4.17289C16.1136 4.13075 16.3436 4.21218 16.5401 4.44932C17.2122 5.26289 17.7329 6.15932 18.0879 7.15361C18.1793 7.40932 18.1429 7.62432 17.9808 7.83361C17.6186 8.30075 17.2629 8.77361 16.9001 9.24004C16.8379 9.32004 16.8186 9.39575 16.8272 9.49647C16.8551 9.83218 16.8558 10.1693 16.8265 10.5043C16.8179 10.6058 16.8401 10.68 16.9015 10.76C17.2601 11.2222 17.6108 11.6908 17.9708 12.1515C18.1443 12.3729 18.1786 12.5965 18.0815 12.8643C17.7193 13.8629 17.1986 14.7679 16.5115 15.5765C16.3386 15.78 16.2036 15.8443 15.9336 15.835ZM9.99863 5.41004C7.47506 5.41075 5.41506 7.47004 5.41077 9.99575C5.40649 12.5172 7.4622 14.5793 9.99077 14.59C12.5136 14.6008 14.5943 12.5208 14.5879 9.99432C14.5815 7.46646 12.5215 5.40932 9.99863 5.41004Z" fill="#00D856"/>
<path d="M9.40285 10.3615C9.61857 10.1415 9.81714 9.93648 10.0186 9.73433C10.4714 9.28005 10.9214 8.82362 11.38 8.37505C11.6221 8.13862 11.9871 8.15005 12.2186 8.38362C12.4443 8.61219 12.46 8.97362 12.2286 9.20862C11.4279 10.0193 10.6221 10.825 9.81214 11.6265C9.57428 11.8615 9.22714 11.8572 8.98785 11.6243C8.57785 11.2243 8.17214 10.82 7.77285 10.4086C7.54285 10.1722 7.55214 9.81362 7.77643 9.5829C8.00571 9.34719 8.37071 9.33433 8.615 9.5679C8.87642 9.8179 9.125 10.08 9.40285 10.3615Z" fill="#00D856"/>
</svg>
