<svg width="20" height="20" viewBox="0 0 20 20" fill="none" xmlns="http://www.w3.org/2000/svg">
<path d="M15.9335 15.8357C15.3399 15.7593 14.7163 15.6822 14.0942 15.5957C13.9971 15.5822 13.9285 15.605 13.8542 15.6572C13.5735 15.8529 13.2778 16.025 12.9671 16.1686C12.8821 16.2079 12.8321 16.2607 12.7964 16.3486C12.5771 16.8893 12.3471 17.4257 12.1292 17.9672C12.0221 18.2336 11.8428 18.3836 11.5556 18.4343C10.4892 18.6222 9.42564 18.6193 8.36206 18.4157C8.13564 18.3722 7.98706 18.2379 7.89992 18.0257C7.66992 17.4693 7.43421 16.915 7.20706 16.3572C7.16921 16.2636 7.11564 16.2057 7.02421 16.1643C6.76421 16.045 6.50564 15.9157 6.27992 15.7422C6.09921 15.6036 5.92135 15.5857 5.70992 15.6179C5.19278 15.6957 4.67349 15.7564 4.15635 15.8293C3.87206 15.8693 3.65349 15.7814 3.46706 15.5572C2.79278 14.7457 2.27206 13.8493 1.91492 12.855C1.82064 12.5929 1.85635 12.375 2.02492 12.1593C2.38492 11.6979 2.73421 11.2286 3.09421 10.7672C3.16064 10.6814 3.18135 10.6014 3.17278 10.4943C3.14564 10.1586 3.14564 9.82216 3.17421 9.48645C3.18206 9.39216 3.16278 9.32216 3.10564 9.24716C2.74349 8.78002 2.38849 8.30645 2.02492 7.84073C1.85706 7.62502 1.82206 7.40716 1.91635 7.14502C2.27349 6.15145 2.79421 5.25502 3.46849 4.44359C3.66135 4.21145 3.88706 4.13288 4.17706 4.17359C4.74992 4.25359 5.32492 4.32288 5.89778 4.40359C5.99206 4.41716 6.06349 4.4043 6.13992 4.35073C6.42421 4.1493 6.72564 3.97502 7.04349 3.83073C7.13064 3.79073 7.17349 3.7293 7.20778 3.6443C7.42635 3.11002 7.65564 2.58002 7.86849 2.04359C7.97778 1.76859 8.15921 1.61573 8.45421 1.56502C9.52135 1.38216 10.5849 1.3793 11.6478 1.58788C11.8742 1.63216 12.0185 1.77216 12.1056 1.98359C12.3328 2.5343 12.5663 3.08288 12.7906 3.63502C12.8314 3.73502 12.8892 3.79502 12.9856 3.84002C13.2849 3.9793 13.5699 4.1443 13.8399 4.3343C13.9263 4.39502 14.0049 4.41859 14.1142 4.40288C14.6806 4.32145 15.2499 4.25645 15.8163 4.17573C16.1135 4.13359 16.3435 4.21359 16.5406 4.45145C17.2135 5.2643 17.7335 6.16073 18.0892 7.15502C18.1806 7.41002 18.1449 7.62573 17.9835 7.83502C17.6221 8.30288 17.2664 8.77502 16.9035 9.24216C16.8414 9.32216 16.8206 9.39645 16.8292 9.49788C16.8571 9.83359 16.8571 10.17 16.8292 10.5057C16.8206 10.6064 16.8414 10.6814 16.9035 10.7614C17.2628 11.2236 17.6121 11.6929 17.9728 12.1536C18.1456 12.375 18.1814 12.5979 18.0842 12.8664C17.7228 13.8657 17.2014 14.7693 16.5142 15.5786C16.3392 15.7807 16.2056 15.8443 15.9335 15.8357ZM4.33849 5.40645C4.24921 5.37645 4.20564 5.43216 4.15706 5.49502C3.76421 6.00573 3.44635 6.55859 3.19278 7.15002C3.14349 7.26502 3.14492 7.34502 3.22778 7.45002C3.56421 7.8743 3.88492 8.31145 4.22064 8.73573C4.36135 8.91359 4.41992 9.10145 4.39135 9.32502C4.33349 9.77216 4.33206 10.2193 4.39064 10.6664C4.42064 10.8964 4.35992 11.0893 4.21492 11.2729C3.87921 11.6972 3.55921 12.135 3.22349 12.5593C3.14492 12.6579 3.14349 12.7329 3.18992 12.8422C3.43564 13.4236 3.75135 13.9629 4.12635 14.4707C4.20778 14.5807 4.28849 14.61 4.42278 14.5907C4.97064 14.5107 5.52064 14.4464 6.06921 14.3707C6.27349 14.3429 6.44706 14.3943 6.60921 14.5193C6.96564 14.7936 7.35278 15.0186 7.76778 15.19C7.98421 15.28 8.12064 15.4264 8.20706 15.6414C8.41064 16.1486 8.62992 16.6486 8.83135 17.1564C8.87564 17.2672 8.93778 17.3064 9.04564 17.3193C9.68564 17.395 10.3249 17.3943 10.9649 17.3186C11.0771 17.305 11.1306 17.2543 11.1728 17.1486C11.3778 16.6357 11.5956 16.1279 11.8035 15.6157C11.8828 15.4207 12.0092 15.2814 12.2056 15.2014C12.6335 15.0264 13.0306 14.795 13.3971 14.5143C13.5542 14.3943 13.7228 14.3429 13.9199 14.3693C14.4749 14.4443 15.0306 14.5114 15.5856 14.5893C15.7099 14.6072 15.7885 14.5843 15.8671 14.4779C16.2464 13.9657 16.5642 13.4207 16.8128 12.8336C16.8621 12.7179 16.8442 12.6464 16.7706 12.5522C16.4363 12.1264 16.1149 11.69 15.7792 11.265C15.6385 11.0872 15.5792 10.9 15.6078 10.6764C15.6656 10.2293 15.6678 9.78145 15.6085 9.33502C15.5778 9.10502 15.6385 8.91216 15.7835 8.7293C16.1235 8.30002 16.4485 7.8593 16.7863 7.42788C16.8535 7.34145 16.8563 7.27573 16.8156 7.17788C16.5713 6.58859 16.2513 6.0443 15.8728 5.53216C15.7913 5.42145 15.7106 5.39216 15.5771 5.41216C15.0292 5.49216 14.4792 5.55716 13.9306 5.63145C13.7271 5.6593 13.5528 5.60788 13.3906 5.48288C13.0349 5.20859 12.6478 4.98216 12.2328 4.81145C12.0149 4.72216 11.8799 4.57573 11.7935 4.36073C11.5899 3.85359 11.3728 3.35288 11.1685 2.84573C11.1292 2.74859 11.0814 2.69716 10.9742 2.6843C10.3221 2.60573 9.66992 2.60502 9.01778 2.68573C8.91778 2.69788 8.87206 2.7443 8.83492 2.83502C8.62921 3.34145 8.41135 3.84216 8.20992 4.35002C8.12135 4.57216 7.98278 4.72288 7.75992 4.81502C7.35064 4.9843 6.96849 5.20573 6.61706 5.47645C6.44992 5.60502 6.27135 5.65859 6.06064 5.63002C5.48706 5.55216 4.91278 5.48073 4.33849 5.40645Z" fill="#5A577A"/>
<path d="M9.39699 10.3579C10.0556 9.69858 10.6941 9.06143 11.3298 8.42072C11.5013 8.24786 11.697 8.16429 11.937 8.22429C12.3941 8.33857 12.5441 8.88143 12.2113 9.22857C11.9048 9.54715 11.5877 9.855 11.2748 10.1679C10.8084 10.635 10.3427 11.1021 9.87485 11.5679C9.56628 11.8743 9.23556 11.8736 8.92842 11.5679C8.55771 11.1986 8.18771 10.8293 7.81913 10.4586C7.54985 10.1871 7.53556 9.82572 7.78199 9.57857C8.02771 9.33143 8.39056 9.34286 8.66199 9.61215C8.90413 9.85286 9.14199 10.0986 9.39699 10.3579Z" fill="#5A577A"/>
</svg>
