<svg width="20" height="20" viewBox="0 0 20 20" fill="none" xmlns="http://www.w3.org/2000/svg">
<path d="M13.7989 8.42658C13.6432 8.44831 13.5051 8.52959 13.4106 8.65556C13.3161 8.78137 13.276 8.93673 13.2974 9.09285C13.3193 9.2479 13.4017 9.38612 13.5295 9.48209C13.6334 9.56015 13.756 9.60132 13.8815 9.60132C13.9086 9.60132 13.9362 9.59933 13.9634 9.59551C15.6468 9.35949 16.9187 7.89683 16.9222 6.19311C16.9222 4.4998 15.7108 3.07235 14.0416 2.79868C14.0109 2.79378 13.9793 2.79133 13.948 2.79133C13.6617 2.79133 13.411 3.00378 13.3648 3.28572C13.3121 3.60592 13.5307 3.91005 13.8515 3.96362C14.9473 4.14271 15.7426 5.0802 15.7426 6.1925C15.7408 7.31076 14.9052 8.27138 13.7989 8.42658Z" fill="#9CA3AF"/>
<path d="M7.92855 10.5839H7.95824C9.12487 10.5797 10.2188 10.1216 11.0386 9.29417C11.8611 8.46657 12.3113 7.37004 12.3062 6.20662C12.3062 3.79254 10.3425 1.82861 7.9287 1.82861C5.51431 1.82861 3.55008 3.79239 3.55008 6.20631C3.55008 7.37371 4.00605 8.47269 4.83396 9.30044C5.66202 10.128 6.761 10.5839 7.92855 10.5839ZM7.9287 3.0081C9.69212 3.0081 11.1268 4.44397 11.1268 6.20891C11.1303 7.05978 10.802 7.86029 10.202 8.46305C9.6035 9.06657 8.80559 9.40085 7.95549 9.40437H7.92855C6.16467 9.40437 4.72957 7.96973 4.72957 6.20631C4.72957 4.4429 6.16467 3.00826 7.9287 3.0081Z" fill="#9CA3AF"/>
<path d="M15.794 11.7533C15.4692 11.71 15.1698 11.9388 15.1227 12.2504C15.075 12.5714 15.2981 12.8723 15.6202 12.9214C16.7958 13.0965 17.392 13.4506 17.392 13.9737C17.392 14.1308 17.392 14.4987 16.6201 14.7908C16.473 14.8463 16.3565 14.9559 16.2921 15.0992C16.2272 15.2432 16.2221 15.4038 16.278 15.5512C16.3642 15.7789 16.5857 15.9318 16.8293 15.9318C16.9007 15.9318 16.9711 15.9188 17.0386 15.8934C18.3055 15.4134 18.5713 14.5846 18.5713 13.9736C18.5713 13.1504 18.0892 12.0969 15.794 11.7533Z" fill="#9CA3AF"/>
<path d="M7.92851 12.1575L7.60265 12.1581C3.50581 12.181 1.42847 13.1964 1.42847 15.1762C1.42847 18.1418 6.0552 18.1658 7.57571 18.1737H8.25453C12.3512 18.1511 14.4284 17.1368 14.4284 15.1591C14.4286 12.4686 10.7188 12.1575 7.92851 12.1575ZM13.2491 15.1591C13.2491 16.3771 11.459 16.9947 7.92867 16.9947C4.39816 16.9947 2.60811 16.3829 2.60811 15.1762C2.60811 13.656 5.50142 13.337 7.92867 13.337C11.4589 13.337 13.2491 13.95 13.2491 15.1591Z" fill="#9CA3AF"/>
</svg>
