<svg width="20" height="20" viewBox="0 0 20 20" fill="none" xmlns="http://www.w3.org/2000/svg">
<path d="M15.2993 17.326H4.70074C2.89646 17.326 1.42859 15.8581 1.42859 14.0538C1.42859 12.2495 2.89646 10.7817 4.70074 10.7817H15.2993C17.1036 10.7817 18.5714 12.2495 18.5714 14.0538C18.5714 15.8581 17.1036 17.326 15.2993 17.326ZM4.70074 11.8603C3.49094 11.8603 2.50685 12.8444 2.50685 14.0542C2.50685 15.264 3.49094 16.2481 4.70074 16.2481H15.2993C16.5087 16.2481 17.4932 15.264 17.4932 14.0542C17.4932 12.8444 16.5091 11.8603 15.2993 11.8603H4.70074Z" fill="#5A577A"/>
<path d="M4.45829 14.6824C4.11109 14.6824 3.83003 14.401 3.83003 14.0542C3.83003 13.707 4.11145 13.4259 4.45829 13.4259C4.80549 13.4259 5.08656 13.7073 5.08656 14.0542C5.08656 14.401 4.80549 14.6824 4.45829 14.6824Z" fill="#5A577A"/>
<path d="M6.6332 14.6824C6.286 14.6824 6.00494 14.401 6.00494 14.0542C6.00494 13.707 6.28636 13.4259 6.6332 13.4259C6.9804 13.4259 7.26147 13.7073 7.26147 14.0542C7.26147 14.401 6.98004 14.6824 6.6332 14.6824Z" fill="#5A577A"/>
<path d="M15.5344 14.6239H10.5697C10.2552 14.6239 10 14.3687 10 14.0542C10 13.7397 10.2552 13.4845 10.5697 13.4845H15.5344C15.8488 13.4845 16.104 13.7397 16.104 14.0542C16.104 14.3687 15.8488 14.6239 15.5344 14.6239Z" fill="#5A577A"/>
<path d="M15.2993 9.21569H4.70074C2.89646 9.21569 1.42859 7.74782 1.42859 5.94354C1.42859 4.13925 2.89646 2.67139 4.70074 2.67139H15.2993C17.1036 2.67139 18.5714 4.13925 18.5714 5.94354C18.5714 7.74782 17.1036 9.21569 15.2993 9.21569ZM4.70074 3.75C3.49094 3.75 2.50685 4.73409 2.50685 5.9439C2.50685 7.1537 3.49094 8.13779 4.70074 8.13779H15.2993C16.5087 8.13779 17.4932 7.1537 17.4932 5.9439C17.4932 4.73409 16.5091 3.75 15.2993 3.75H4.70074Z" fill="#5A577A"/>
<path d="M4.45829 6.5721C4.11109 6.5721 3.83003 6.29068 3.83003 5.94384C3.83003 5.59664 4.11145 5.31557 4.45829 5.31557C4.80549 5.31557 5.08656 5.597 5.08656 5.94384C5.08656 6.29068 4.80549 6.5721 4.45829 6.5721Z" fill="#5A577A"/>
<path d="M6.6332 6.5721C6.286 6.5721 6.00494 6.29068 6.00494 5.94384C6.00494 5.59664 6.28636 5.31557 6.6332 5.31557C6.9804 5.31557 7.26147 5.597 7.26147 5.94384C7.26147 6.29068 6.98004 6.5721 6.6332 6.5721Z" fill="#5A577A"/>
<path d="M15.5344 6.51358H10.5697C10.2552 6.51358 10 6.25839 10 5.9439C10 5.62941 10.2552 5.37422 10.5697 5.37422H15.5344C15.8488 5.37422 16.104 5.62941 16.104 5.9439C16.104 6.25839 15.8488 6.51358 15.5344 6.51358Z" fill="#5A577A"/>
</svg>
