<svg width="30" height="30" viewBox="0 0 30 30" fill="none" xmlns="http://www.w3.org/2000/svg">
<g clip-path="url(#clip0_1331_1422)">
<path d="M28.3901 24.6601C28.2501 24.5601 28.1001 24.4701 27.9501 24.3901C27.8001 24.3001 27.6401 24.2101 27.4901 24.1101C26.9201 23.7001 26.5801 23.0901 26.5801 22.4201C26.5801 21.7501 26.9101 21.1401 27.4801 20.7401C27.6301 20.6301 27.7901 20.5301 27.9501 20.4401C28.0901 20.3601 28.2401 20.2801 28.3801 20.1801C29.9301 19.1401 30.4601 17.1801 29.6201 15.5301C29.2101 14.7301 28.7601 13.9401 28.2601 13.1901C27.5901 12.1801 26.4801 11.5701 25.2901 11.5701C24.7301 11.5701 24.1901 11.7001 23.6701 11.9501C23.5101 12.0301 23.3601 12.1101 23.2101 12.2001C23.0401 12.3001 22.8601 12.4001 22.6801 12.4801C22.4001 12.6001 22.1001 12.6701 21.8101 12.6701C20.7501 12.6701 19.9001 11.8901 19.7901 10.8101C19.7701 10.6301 19.7701 10.4401 19.7701 10.2401C19.7701 10.1301 19.7801 10.0201 19.7701 9.91006C19.7201 7.90006 18.1701 6.36006 16.1601 6.32006C15.7401 6.31006 15.3401 6.31006 14.9601 6.31006C14.5601 6.31006 14.1801 6.31006 13.8101 6.32006C11.8401 6.37006 10.3201 7.91006 10.2601 9.89006V10.6701C10.2001 11.8101 9.33011 12.6701 8.23011 12.6701C7.90011 12.6701 7.57011 12.5901 7.25011 12.4301C7.13011 12.3701 7.01011 12.3001 6.88011 12.2201L6.71011 12.1301C6.05011 11.7601 5.38011 11.5701 4.72011 11.5701C3.45011 11.5701 2.31011 12.2701 1.59011 13.4801C1.23011 14.0801 0.84011 14.7201 0.49011 15.3901C-0.47989 17.1901 0.0701098 19.2101 1.82011 20.2901C1.91011 20.3501 2.01011 20.4001 2.12011 20.4601C2.27011 20.5501 2.41011 20.6301 2.54011 20.7201C3.12011 21.1301 3.45011 21.7401 3.45011 22.4101C3.45011 23.0801 3.13011 23.6901 2.56011 24.1001C2.42011 24.1901 2.27011 24.2801 2.11011 24.3801C1.98011 24.4501 1.85011 24.5301 1.72011 24.6101C0.44011 25.4501 -0.12989 26.5801 0.0701099 27.8701C0.18011 28.6301 0.40011 29.3401 0.71011 30.0001H1.83011C1.44011 29.3201 1.18011 28.5501 1.05011 27.7201C0.92011 26.8201 1.32011 26.0801 2.27011 25.4501C2.38011 25.3701 2.49011 25.3101 2.61011 25.2401C2.80011 25.1301 2.98011 25.0301 3.14011 24.9101C3.98011 24.3201 4.46011 23.4101 4.45011 22.4101C4.45011 21.4101 3.96011 20.4901 3.11011 19.9001C2.96011 19.8001 2.80011 19.7001 2.61011 19.6001C2.51011 19.5401 2.43011 19.4901 2.35011 19.4401C1.05011 18.6401 0.66011 17.2001 1.37011 15.8601C1.71011 15.2201 2.09011 14.5801 2.44011 13.9901C2.99011 13.0901 3.81011 12.5701 4.72011 12.5701C5.21011 12.5701 5.71011 12.7201 6.21011 12.9901L6.38011 13.0901C6.53011 13.1801 6.67011 13.2601 6.81011 13.3301C7.26011 13.5501 7.74011 13.6701 8.23011 13.6701C9.87011 13.6701 11.1701 12.4001 11.2601 10.7101V9.92006C11.3001 8.47006 12.4101 7.36006 13.8401 7.32006C14.1901 7.31006 14.5701 7.31006 14.9601 7.31006C15.3401 7.31006 15.7301 7.31006 16.1401 7.32006C17.6001 7.35006 18.7301 8.47006 18.7701 9.93006C18.7801 10.0301 18.7701 10.1301 18.7701 10.2401C18.7701 10.4501 18.7701 10.6701 18.8001 10.9101C18.9601 12.5101 20.2301 13.6701 21.8101 13.6701C22.2401 13.6701 22.6701 13.5701 23.0901 13.3901C23.3001 13.3001 23.5001 13.1801 23.7101 13.0701C23.8401 12.9901 23.9701 12.9201 24.1101 12.8501C24.4901 12.6701 24.8901 12.5701 25.2901 12.5701C26.1501 12.5701 26.9401 13.0101 27.4201 13.7401C27.9001 14.4601 28.3401 15.2201 28.7301 15.9901C29.3301 17.1801 28.9501 18.5901 27.8201 19.3501C27.7001 19.4301 27.5701 19.5101 27.4501 19.5801C27.2701 19.6801 27.0701 19.8001 26.9001 19.9201C26.0601 20.5101 25.5801 21.4201 25.5801 22.4201C25.5801 23.4201 26.0701 24.3401 26.9201 24.9301C27.0901 25.0401 27.2701 25.1501 27.4501 25.2601C27.5801 25.3301 27.7101 25.4001 27.8301 25.4901C28.9601 26.2501 29.3301 27.6701 28.7201 28.8601C28.5301 29.2401 28.3201 29.6201 28.1001 30.0001H29.2501C29.3801 29.7701 29.5001 29.5501 29.6101 29.3201C30.4601 27.6701 29.9401 25.7101 28.3901 24.6601ZM15.2101 16.1501H15.0801C11.5701 16.1501 8.79011 18.8901 8.75011 22.3901C8.72011 25.7401 11.5201 28.6201 14.8601 28.6801H14.9701C18.4601 28.6801 21.2401 25.9501 21.2801 22.4801C21.3301 19.1101 18.5501 16.2201 15.2101 16.1501ZM14.9801 27.6801H14.8801C12.0701 27.6301 9.73011 25.2201 9.75011 22.4001C9.78011 19.4601 12.1201 17.1601 15.0801 17.1501H15.1901C17.9901 17.2101 20.3201 19.6401 20.2801 22.4601C20.2401 25.3901 17.9101 27.6801 14.9801 27.6801Z" fill="#5A577A"/>
<path d="M26.4989 9.49301C26.4619 10.113 26.5359 10.653 26.4189 11.191C26.0489 12.888 24.4209 14.025 22.7089 13.758C22.5249 13.729 22.4379 13.789 22.3369 13.931C20.9339 15.93 19.0309 17.166 16.6339 17.638C16.5029 17.664 16.4429 17.717 16.3889 17.837C16.0059 18.689 15.0969 19.138 14.1939 18.933C13.3159 18.733 12.6739 17.903 12.7019 17.004C12.7309 16.082 13.4029 15.31 14.3149 15.152C15.0939 15.016 15.9019 15.391 16.2939 16.098C16.3839 16.261 16.4709 16.267 16.6229 16.233C19.6259 15.554 21.8789 13.204 22.4119 10.191C23.1269 6.14901 20.3929 2.23701 16.3469 1.51501C12.3309 0.798011 8.48189 3.38601 7.65689 7.37801C7.29589 9.12901 7.54089 10.81 8.37289 12.4C8.69389 13.013 8.53689 13.407 7.88089 13.628C5.81289 14.325 3.61789 12.837 3.53789 10.648C3.50789 9.82601 3.45989 8.99701 3.56189 8.17401C3.74689 6.68301 5.05489 5.45201 6.55489 5.36501C6.77489 5.35201 6.87889 5.28101 6.98089 5.08001C8.41689 2.23601 10.6999 0.525011 13.8659 0.0830109C17.6989 -0.451989 21.4419 1.62501 23.0689 5.13401C23.1389 5.28501 23.2149 5.34901 23.3889 5.35801C25.1319 5.45801 26.4799 6.87901 26.4989 8.62501C26.5019 8.94201 26.4989 9.25901 26.4989 9.49301Z" fill="#E8E7EC"/>
<path d="M14.9478 3.38098C17.8428 3.38498 20.2078 5.55798 20.4508 8.37798C20.7008 11.276 18.6428 13.863 15.7638 14.266C15.0978 14.359 14.4348 14.332 13.7808 14.173C13.6568 14.143 13.5638 14.157 13.4558 14.22C12.7828 14.614 12.1078 15.005 11.4298 15.39C10.9858 15.642 10.4968 15.414 10.4188 14.931C10.3988 14.804 10.4348 14.686 10.4658 14.568C10.6278 13.961 10.7908 13.355 10.9578 12.75C10.9908 12.63 10.9798 12.544 10.8938 12.439C9.54178 10.801 9.15478 8.95398 9.89478 6.96198C10.6328 4.97398 12.1178 3.81098 14.2138 3.44498C14.2918 3.43098 14.3708 3.41898 14.4498 3.41198C14.6368 3.39898 14.8248 3.38898 14.9478 3.38098ZM15.0058 9.49798C15.3668 9.49698 15.6568 9.21398 15.6598 8.85798C15.6638 8.49698 15.3588 8.19198 14.9998 8.19698C14.6468 8.20298 14.3558 8.49898 14.3568 8.85298C14.3588 9.21198 14.6488 9.49998 15.0058 9.49798ZM17.1638 9.49798C17.5258 9.50598 17.8198 9.23198 17.8328 8.87498C17.8458 8.51698 17.5478 8.20298 17.1898 8.19798C16.8398 8.19298 16.5388 8.48698 16.5318 8.83798C16.5248 9.19598 16.8068 9.48998 17.1638 9.49798ZM12.8458 9.49798C13.2048 9.49498 13.4898 9.20598 13.4878 8.84798C13.4868 8.49798 13.1888 8.19898 12.8398 8.19798C12.4808 8.19698 12.1788 8.50498 12.1858 8.86498C12.1938 9.22198 12.4848 9.50098 12.8458 9.49798Z" fill="#E8E7EC"/>
</g>
<defs>
<clipPath id="clip0_1331_1422">
<rect width="30" height="30" fill="white"/>
</clipPath>
</defs>
</svg>
