<svg width="20" height="20" viewBox="0 0 20 20" fill="none" xmlns="http://www.w3.org/2000/svg">
<path d="M10.6001 5.48566C10.4144 5.17852 10.1215 5.1428 10.0001 5.1428C9.87869 5.1428 9.58583 5.17852 9.40012 5.48566L5.97155 11.2142C5.78583 11.5214 5.88583 11.7857 5.95726 11.9214C6.02155 12.0285 6.20012 12.2714 6.57155 12.2714H13.4287C13.8001 12.2714 13.9787 12.0285 14.043 11.9214C14.1001 11.8142 14.2215 11.5285 14.0287 11.2142L10.6001 5.48566ZM9.68583 6.98566C9.78583 6.87852 9.9144 6.82138 10.0644 6.82138C10.2215 6.82138 10.343 6.87852 10.443 6.98566C10.543 7.0928 10.5858 7.22852 10.5715 7.38566L10.4001 9.62852C10.3787 9.8428 10.2644 9.96423 10.0715 9.96423C9.87869 9.96423 9.75726 9.8428 9.73583 9.62852L9.5644 7.38566C9.55012 7.22852 9.59298 7.0928 9.68583 6.98566ZM10.5858 10.8714C10.5858 11.0214 10.543 11.1357 10.4573 11.2214C10.3715 11.3071 10.2573 11.3499 10.1073 11.3499H10.0287C9.87869 11.3499 9.7644 11.3071 9.67869 11.2285C9.59298 11.1357 9.55726 11.0214 9.55726 10.8714V10.7714C9.55726 10.6214 9.59298 10.5071 9.67869 10.4214C9.7644 10.3357 9.87869 10.2928 10.0287 10.2928H10.1073C10.2573 10.2928 10.3715 10.3357 10.4573 10.4285C10.5358 10.4999 10.5858 10.6214 10.5858 10.7714V10.8714ZM15.9501 1.46423H3.87155C2.98583 1.46423 2.2644 2.18566 2.2644 3.07138V16.9999C2.2644 17.8857 2.98583 18.6071 3.87155 18.6071H15.9501C16.8358 18.6071 17.5573 17.8857 17.5573 16.9999V3.07138C17.5573 2.18566 16.8358 1.46423 15.9501 1.46423ZM4.95726 15.4928C4.95726 15.3214 5.02869 15.1642 5.14298 15.0428C5.25726 14.9357 5.4144 14.8642 5.59298 14.8642C5.7644 14.8642 5.92869 14.9357 6.04298 15.0428C6.15726 15.1642 6.22869 15.3214 6.22869 15.4928C6.22869 15.6714 6.15726 15.8285 6.04298 15.9428C5.92869 16.0571 5.7644 16.1285 5.59298 16.1285C5.24298 16.1285 4.95726 15.8428 4.95726 15.4928ZM7.15726 15.4928C7.15726 15.1999 7.40012 14.9571 7.69298 14.9571H10.8644C11.1644 14.9571 11.4001 15.1999 11.4001 15.4928C11.4001 15.7928 11.1644 16.0285 10.8644 16.0285H7.69298C7.40012 16.0285 7.15726 15.7928 7.15726 15.4928ZM12.1001 15.4928C12.1001 15.1999 12.343 14.9571 12.6358 14.9571H14.4715C14.7644 14.9571 15.0073 15.1999 15.0073 15.4928C15.0073 15.7928 14.7644 16.0285 14.4715 16.0285H12.6358C12.343 16.0285 12.1001 15.7928 12.1001 15.4928ZM14.8358 12.3714C14.543 12.8857 14.0215 13.1857 13.4287 13.1857H6.57155C5.97869 13.1857 5.45726 12.8857 5.1644 12.3714C4.87155 11.8571 4.87869 11.2499 5.18583 10.7428L8.6144 5.01423C8.90726 4.52138 9.42869 4.22852 10.0001 4.22852C10.5715 4.22852 11.093 4.52138 11.3858 5.01423L14.8144 10.7428C15.1215 11.2499 15.1287 11.8571 14.8358 12.3714Z" fill="#F24A17"/>
</svg>
