<svg width="22" height="22" viewBox="0 0 22 22" fill="none" xmlns="http://www.w3.org/2000/svg">
<path fill-rule="evenodd" clip-rule="evenodd" d="M8.35703 18.7879H13.6389C13.157 19.7584 12.1559 20.4286 10.9988 20.4286C9.84164 20.4286 8.84059 19.7584 8.35703 18.7879Z" fill="white"/>
<path fill-rule="evenodd" clip-rule="evenodd" d="M18.8545 16.6958C18.8545 17.4543 18.2386 18.0702 17.4802 18.0702H4.51739C3.75897 18.0702 3.14307 17.4543 3.14307 16.6958C3.14307 16.2937 3.31783 15.912 3.62323 15.6507C4.81771 14.6411 5.49979 13.1735 5.49979 11.6193V9.42887C5.49979 6.59538 7.6529 4.25562 10.41 3.9604V2.16189C10.41 1.83613 10.673 1.57144 10.9988 1.57144C11.3246 1.57144 11.5876 1.83613 11.5876 2.16189V3.9604C14.3447 4.25562 16.4978 6.59538 16.4978 9.42887V11.6193C16.4978 13.1735 17.1799 14.6411 18.3659 15.6456C18.6798 15.912 18.8545 16.2937 18.8545 16.6958Z" fill="white"/>
<circle cx="15" cy="6" r="3.75" fill="#F50303" stroke="#121212" stroke-width="1.5"/>
</svg>
