<svg width="121" height="34" viewBox="0 0 121 34" fill="none" xmlns="http://www.w3.org/2000/svg">
<path d="M36.9277 9.92389C37.5502 9.57963 38.0647 9.13816 38.4616 8.60565C38.9704 7.91522 39.2284 7.11432 39.2284 6.22521C39.2284 4.57408 38.6972 3.30467 37.6511 2.4535C36.6269 1.61276 35.0882 1.18646 33.0783 1.18646H26.9282V19.6789H33.4386C35.4109 19.6789 36.9639 19.1929 38.0552 18.2336C39.1556 17.2672 39.7129 15.9248 39.7129 14.2442C39.7129 13.1408 39.4088 12.1772 38.8105 11.3816C38.3289 10.7262 37.6973 10.2373 36.9277 9.92389ZM35.4951 8.1471C34.9211 8.62793 34.1325 8.87119 33.1516 8.87119H29.7877V3.61574H33.0773C34.201 3.61574 35.042 3.8277 35.5775 4.24736C36.1 4.649 36.3542 5.292 36.3542 6.21288C36.3547 7.03702 36.0739 7.66912 35.4951 8.1471ZM29.7881 11.2497H33.5247C35.755 11.2497 36.8392 12.237 36.8392 14.2675C36.8392 15.2121 36.5484 15.9314 35.9496 16.4668C35.36 16.9931 34.5318 17.2601 33.4876 17.2601H29.7886V11.2497H29.7881Z" fill="white"/>
<path d="M116.38 1.18549V14.5714L107.619 1.18549H104.854V19.6775H107.728V6.35226L116.465 19.6775H119.229V1.18549H116.38Z" fill="white"/>
<path d="M84.4184 9.91533C85.0585 9.04471 85.3831 8.01051 85.3831 6.84305C85.3831 5.01267 84.7987 3.59437 83.6469 2.62797C82.5147 1.67106 80.8831 1.18549 78.798 1.18549H72.5737V19.6775H75.4465V12.3887H79.3144L83.239 19.6775H86.178V19.2308L82.0306 11.7637C83.0353 11.3365 83.8373 10.7158 84.4184 9.91533ZM82.5104 6.84352C82.5104 7.80328 82.192 8.54634 81.5356 9.11584C80.8874 9.6844 79.9917 9.9727 78.8728 9.9727H75.447V3.61571H78.8595C80.0522 3.62377 80.9683 3.90686 81.5842 4.4593C82.2072 5.01078 82.5104 5.79082 82.5104 6.84352Z" fill="white"/>
<path d="M45.8111 1.18549H42.9502V19.6775H45.8111V1.18549Z" fill="white"/>
<path d="M63.7777 1.18549H60.2595L52.5674 9.7138V1.18549H49.707V19.6775H52.5674V13.4476L54.5197 11.4266L60.8316 19.6775H64.286L56.4382 9.39182L63.7777 1.18549Z" fill="white"/>
<path d="M93.49 1.18549L86.4019 19.6775H89.3746L91.076 14.9749H98.3194L100.045 19.6775H103.004L95.904 1.18549H93.49ZM97.4365 12.5457H91.9675L94.696 5.04966L97.4365 12.5457Z" fill="white"/>
<path d="M68.6895 1.18549H65.8291V19.6775H68.6895V1.18549Z" fill="white"/>
<path d="M4.9512 10.7385C7.66464 10.7385 9.86431 8.5469 9.86431 5.84343C9.86431 3.13996 7.66464 0.948364 4.9512 0.948364C2.23776 0.948364 0.0380859 3.13996 0.0380859 5.84343C0.0380859 8.5469 2.23776 10.7385 4.9512 10.7385Z" fill="#F50303"/>
<path d="M16.0049 10.7385C18.7183 10.7385 20.918 8.5469 20.918 5.84343C20.918 3.13996 18.7183 0.948364 16.0049 0.948364C13.2915 0.948364 11.0918 3.13996 11.0918 5.84343C11.0918 8.5469 13.2915 10.7385 16.0049 10.7385Z" fill="#FFE600"/>
<path d="M10.4776 19.916C13.191 19.916 15.3907 17.7244 15.3907 15.0209C15.3907 12.3174 13.191 10.1259 10.4776 10.1259C7.76413 10.1259 5.56445 12.3174 5.56445 15.0209C5.56445 17.7244 7.76413 19.916 10.4776 19.916Z" fill="#AE00B9"/>
<path fill-rule="evenodd" clip-rule="evenodd" d="M2.47061 28.8119C1.69721 28.5905 1.1337 28.3192 0.780074 27.9977C0.429307 27.6734 0.254162 27.2741 0.254162 26.7999C0.254162 26.2636 0.46881 25.8207 0.897631 25.4713C1.32978 25.1189 1.88996 24.9425 2.57865 24.9425C3.0484 24.9425 3.46627 25.0331 3.83227 25.2138C4.2016 25.3949 4.48668 25.6443 4.68705 25.962C4.89076 26.2802 4.99213 26.6278 4.99213 27.0053H4.08594C4.08594 26.5937 3.95458 26.2707 3.69139 26.037C3.4282 25.7999 3.05744 25.6813 2.57817 25.6813C2.13364 25.6813 1.78621 25.7795 1.53586 25.9763C1.28885 26.1697 1.16511 26.4396 1.16511 26.7857C1.16511 27.0631 1.28267 27.2988 1.5173 27.4923C1.75527 27.6824 2.15744 27.8574 2.72428 28.0162C3.29398 28.1756 3.73851 28.3515 4.05786 28.545C4.38055 28.7351 4.61804 28.9585 4.77177 29.214C4.92835 29.4696 5.00641 29.7707 5.00641 30.1169C5.00641 30.6689 4.79033 31.1118 4.35818 31.4456C3.92603 31.7761 3.34871 31.9416 2.62529 31.9416C2.15554 31.9416 1.7172 31.8524 1.31027 31.6746C0.903342 31.4935 0.588747 31.2474 0.366484 30.9354C0.147552 30.6238 0.0380859 30.2701 0.0380859 29.8741H0.944273C0.944273 30.2857 1.0961 30.6115 1.39975 30.8519C1.70673 31.089 2.11508 31.2075 2.62529 31.2075C3.10123 31.2075 3.4658 31.1108 3.71947 30.9173C3.97315 30.7239 4.09975 30.4602 4.09975 30.1269C4.09975 29.793 3.98219 29.536 3.74755 29.3549C3.51291 29.1704 3.08695 28.9898 2.47061 28.8119ZM8.32703 31.9411C7.63835 31.9411 7.07769 31.7163 6.64602 31.2673C6.21386 30.8149 5.99826 30.2113 5.99826 29.4568V29.298C5.99826 28.7958 6.09393 28.3482 6.28478 27.9551C6.47896 27.5591 6.74787 27.2499 7.09245 27.029C7.43988 26.8042 7.8154 26.6923 8.21947 26.6923C8.88007 26.6923 9.39313 26.909 9.75961 27.3429C10.1261 27.7763 10.3088 28.397 10.3088 29.205V29.5654H6.86685C6.87923 30.0643 7.02486 30.4683 7.30376 30.777C7.58552 31.0828 7.94247 31.2355 8.37463 31.2355C8.68161 31.2355 8.94147 31.1729 9.15421 31.0482C9.36696 30.9235 9.55352 30.758 9.71296 30.5522L10.2436 30.9638C9.81719 31.6153 9.17849 31.9411 8.32703 31.9411ZM8.22232 27.4026C7.87156 27.4026 7.57743 27.5307 7.33946 27.7863C7.10149 28.039 6.95442 28.3946 6.89826 28.8532H9.44311V28.7877C9.41836 28.3482 9.29937 28.0082 9.08615 27.7678C8.87388 27.5245 8.58547 27.4026 8.22232 27.4026ZM13.9721 27.562C13.8408 27.5402 13.6985 27.5292 13.5447 27.5292C12.975 27.5292 12.5886 27.7711 12.3849 28.2543V31.8472H11.5163V26.7852H12.3616L12.3758 27.3699C12.6609 26.9175 13.0645 26.6914 13.5871 26.6914C13.7561 26.6914 13.8846 26.7132 13.9721 26.7568V27.562ZM16.7273 30.6722L17.9857 26.7843H18.8734L17.0515 31.8463H16.3894L14.5485 26.7843H15.4361L16.7273 30.6722ZM20.9408 31.8467H19.979V26.7843H20.9408V31.8467ZM19.9061 25.4428C19.9061 25.3024 19.9485 25.1839 20.0332 25.0872C20.1203 24.9904 20.2488 24.9421 20.4178 24.9421C20.5867 24.9421 20.7152 24.9904 20.8028 25.0872C20.8904 25.1839 20.9342 25.3024 20.9342 25.4428C20.9342 25.5832 20.8904 25.7003 20.8028 25.7937C20.7152 25.8871 20.5867 25.9341 20.4178 25.9341C20.2488 25.9341 20.1203 25.8871 20.0327 25.7937C19.948 25.6998 19.9061 25.5832 19.9061 25.4428ZM24.4713 31.2346C24.7812 31.2346 25.052 31.1412 25.2838 30.9538C25.5156 30.7665 25.6441 30.5328 25.6688 30.252H26.4907C26.475 30.5422 26.3751 30.8182 26.19 31.08C26.0053 31.3422 25.7578 31.5509 25.448 31.7069C25.141 31.8629 24.8154 31.9406 24.4713 31.9406C23.7793 31.9406 23.2287 31.7111 22.8184 31.2531C22.4115 30.7912 22.2078 30.1615 22.2078 29.3629V29.2178C22.2078 28.7252 22.2987 28.287 22.48 27.9034C22.6618 27.5198 22.9212 27.222 23.2596 27.01C23.6009 26.798 24.003 26.6918 24.4661 26.6918C25.0358 26.6918 25.5084 26.8616 25.8844 27.2021C26.2633 27.542 26.465 27.9835 26.4903 28.526H25.6683C25.6431 28.1983 25.5179 27.9304 25.2928 27.7213C25.0705 27.5093 24.795 27.4031 24.4666 27.4031C24.0254 27.4031 23.6822 27.562 23.4381 27.8806C23.1973 28.1955 23.0764 28.6526 23.0764 29.2515V29.4151C23.0764 29.9984 23.1968 30.4474 23.4381 30.7627C23.6794 31.0771 24.0235 31.2346 24.4713 31.2346ZM29.7671 31.9411C29.0784 31.9411 28.5182 31.7163 28.0861 31.2673C27.6539 30.8149 27.4383 30.2113 27.4383 29.4568V29.298C27.4383 28.7958 27.534 28.3482 27.7249 27.9551C27.919 27.5591 28.1884 27.2499 28.5325 27.029C28.88 26.8042 29.2555 26.6923 29.6595 26.6923C30.3202 26.6923 30.8337 26.909 31.1997 27.3429C31.5662 27.7763 31.7489 28.397 31.7489 29.205V29.5654H28.3069C28.3193 30.0643 28.4649 30.4683 28.7438 30.777C29.0256 31.0828 29.3826 31.2355 29.8147 31.2355C30.1217 31.2355 30.3815 31.1729 30.5943 31.0482C30.807 30.9235 30.9936 30.758 31.153 30.5522L31.6837 30.9638C31.2573 31.6153 30.619 31.9411 29.7671 31.9411ZM29.6619 27.4026C29.3112 27.4026 29.017 27.5307 28.7791 27.7863C28.5411 28.039 28.394 28.3946 28.3374 28.8532H30.8827V28.7877C30.8575 28.3482 30.7385 28.0082 30.5258 27.7678C30.313 27.5245 30.0251 27.4026 29.6619 27.4026ZM32.9235 33.2039L32.4305 32.8672C32.7246 32.4585 32.8783 32.0374 32.8907 31.604V30.8225H33.7407V31.5011C33.7407 31.8159 33.6627 32.1308 33.5061 32.4461C33.3524 32.761 33.1582 33.0137 32.9235 33.2039ZM39.7585 28.811C38.9851 28.5895 38.4216 28.3183 38.068 27.9968C37.7172 27.6725 37.542 27.2732 37.542 26.799C37.542 26.2627 37.7567 25.8198 38.1855 25.4703C38.6177 25.1185 39.1778 24.9421 39.8665 24.9421C40.3363 24.9421 40.7542 25.0326 41.1201 25.2133C41.4895 25.3944 41.7746 25.6439 41.9749 25.962C42.1786 26.2802 42.28 26.6278 42.28 27.0053H41.3738C41.3738 26.5937 41.2425 26.2707 40.9793 26.037C40.7166 25.7999 40.3453 25.6813 39.8665 25.6813C39.422 25.6813 39.0746 25.7795 38.8242 25.9758C38.5767 26.1693 38.4535 26.4391 38.4535 26.7852C38.4535 27.0626 38.5705 27.2983 38.8057 27.4918C39.0436 27.6819 39.4458 27.8569 40.0122 28.0158C40.5819 28.1746 41.0264 28.351 41.3457 28.5445C41.668 28.7346 41.9059 28.9575 42.0597 29.2136C42.2162 29.4692 42.2943 29.7703 42.2943 30.1164C42.2943 30.6684 42.0782 31.1113 41.6465 31.4451C41.2144 31.7756 40.6371 31.9411 39.9136 31.9411C39.4439 31.9411 39.0056 31.852 38.5986 31.6746C38.1917 31.4935 37.8771 31.2474 37.6548 30.9354C37.4354 30.6233 37.326 30.2696 37.326 29.8732H38.2322C38.2322 30.2848 38.384 30.6105 38.6876 30.8509C38.9946 31.088 39.403 31.2066 39.9132 31.2066C40.3891 31.2066 40.7537 31.1099 41.0074 30.9164C41.261 30.7229 41.3876 30.4593 41.3876 30.1259C41.3876 29.7921 41.2701 29.5351 41.0354 29.3539C40.8008 29.1699 40.3753 28.9888 39.7585 28.811ZM45.6154 31.9411C44.9267 31.9411 44.3661 31.7163 43.9339 31.2673C43.5017 30.8149 43.2861 30.2113 43.2861 29.4568V29.298C43.2861 28.7958 43.3818 28.3482 43.5727 27.9551C43.7668 27.5591 44.0357 27.2499 44.3803 27.029C44.7278 26.8042 45.1033 26.6923 45.5074 26.6923C46.168 26.6923 46.681 26.909 47.0475 27.3429C47.4135 27.7763 47.5967 28.397 47.5967 29.205V29.5654H44.1547C44.1671 30.0643 44.3127 30.4683 44.5916 30.777C44.8734 31.0828 45.2304 31.2355 45.662 31.2355C45.969 31.2355 46.2289 31.1729 46.4416 31.0482C46.6544 30.9235 46.8409 30.758 47.0004 30.5522L47.531 30.9638C47.1051 31.6153 46.4668 31.9411 45.6154 31.9411ZM45.5097 27.4026C45.159 27.4026 44.8648 27.5307 44.6269 27.7863C44.3889 28.039 44.2418 28.3946 44.1857 28.8532H46.731V28.7877C46.7058 28.3482 46.5868 28.0082 46.374 27.7678C46.1608 27.5245 45.8729 27.4026 45.5097 27.4026ZM50.8421 31.2346C51.152 31.2346 51.4228 31.1412 51.6546 30.9538C51.8859 30.7665 52.0144 30.5328 52.0391 30.252H52.8611C52.8454 30.5422 52.7454 30.8182 52.5608 31.08C52.3761 31.3422 52.1286 31.5509 51.8188 31.7069C51.5118 31.8629 51.1862 31.9406 50.8421 31.9406C50.1501 31.9406 49.599 31.7111 49.1892 31.2531C48.7823 30.7912 48.5786 30.1615 48.5786 29.3629V29.2178C48.5786 28.7252 48.6695 28.287 48.8508 27.9034C49.0326 27.5198 49.2925 27.222 49.6304 27.01C49.9717 26.798 50.3738 26.6918 50.8374 26.6918C51.4071 26.6918 51.8797 26.8616 52.2557 27.2021C52.6341 27.542 52.8363 27.9835 52.8611 28.526H52.0391C52.0144 28.1983 51.8892 27.9304 51.6636 27.7213C51.4414 27.5093 51.1658 27.4031 50.8374 27.4031C50.3957 27.4031 50.053 27.562 49.8089 27.8806C49.5681 28.1955 49.4472 28.6526 49.4472 29.2515V29.4151C49.4472 29.9984 49.5681 30.4474 49.8089 30.7627C50.0502 31.0771 50.3943 31.2346 50.8421 31.2346ZM57.1617 31.346C56.8228 31.7424 56.3269 31.9402 55.6729 31.9402C55.1313 31.9402 54.7177 31.7842 54.4331 31.4721C54.1513 31.1573 54.0086 30.6926 54.0057 30.078V26.7843H54.8748V30.0543C54.8748 30.8215 55.187 31.2052 55.8133 31.2052C56.4768 31.2052 56.9185 30.9586 57.1374 30.4659V26.7838H58.006V31.8458H57.1797L57.1617 31.346ZM61.9815 27.562C61.8501 27.5402 61.7078 27.5292 61.5546 27.5292C60.9844 27.5292 60.5979 27.7711 60.3947 28.2543V31.8472H59.5256V26.7852H60.3709L60.3852 27.3699C60.6698 26.9175 61.0739 26.6914 61.5969 26.6914C61.7664 26.6914 61.8944 26.7132 61.9815 26.7568V27.562ZM64.0123 31.8467H63.0504V26.7843H64.0123V31.8467ZM62.9833 25.4428C62.9833 25.3024 63.0257 25.1839 63.1104 25.0872C63.198 24.9904 63.3255 24.9421 63.495 24.9421C63.6644 24.9421 63.792 24.9904 63.8805 25.0872C63.9681 25.1839 64.0114 25.3024 64.0114 25.4428C64.0114 25.5832 63.9681 25.7003 63.8805 25.7937C63.792 25.8871 63.6644 25.9341 63.495 25.9341C63.3255 25.9341 63.198 25.8871 63.1104 25.7937C63.0257 25.6998 62.9833 25.5832 62.9833 25.4428ZM66.6847 25.5595V26.7852H67.6342V27.4543H66.6847V30.5935C66.6847 30.7964 66.7271 30.9491 66.8118 31.052C66.8965 31.1521 67.0407 31.2018 67.2435 31.2018C67.3448 31.2018 67.4824 31.1829 67.6571 31.1459V31.8477C67.4281 31.9103 67.2063 31.9411 66.9907 31.9411C66.6024 31.9411 66.3097 31.824 66.1126 31.5902C65.9156 31.3564 65.8166 31.024 65.8166 30.5939V27.4548H64.8914V26.7857H65.8166V25.5599H66.6847V25.5595ZM70.507 30.5788L71.6902 26.7843H72.6201L70.5774 32.6277C70.2609 33.4699 69.7588 33.891 69.0706 33.891L68.9059 33.8768L68.5818 33.8161V33.1143L68.8164 33.1332C69.1106 33.1332 69.3395 33.074 69.5023 32.9554C69.6674 32.8369 69.804 32.6202 69.9111 32.3053L70.1034 31.7908L68.2905 26.7848H69.2386L70.507 30.5788ZM75.9912 30.0183C75.9912 29.6906 76.0816 29.39 76.2635 29.1154C76.4481 28.8409 76.7979 28.5213 77.3153 28.1566C77.0116 27.7886 76.8074 27.4923 76.7046 27.2675C76.6009 27.0432 76.55 26.8199 76.55 26.5984C76.55 26.0806 76.7027 25.6752 77.0097 25.3821C77.3162 25.0886 77.7327 24.9421 78.2586 24.9421C78.7279 24.9421 79.1167 25.0791 79.4232 25.3537C79.7302 25.6249 79.883 25.9682 79.883 26.3831C79.883 26.6577 79.813 26.9118 79.6726 27.1456C79.5341 27.3766 79.2914 27.6198 78.9444 27.8754L78.4413 28.2448L79.9629 30.0553C80.1761 29.6498 80.2823 29.1989 80.2823 28.7033H81.0671C81.0671 29.4986 80.8743 30.1582 80.4888 30.6821L81.4659 31.8472H80.4236L79.9677 31.309C79.7359 31.5148 79.4637 31.6722 79.151 31.7813C78.8407 31.8875 78.5251 31.9406 78.202 31.9406C77.5356 31.9406 76.9997 31.7642 76.5961 31.4119C76.193 31.0601 75.9912 30.5954 75.9912 30.0183ZM78.1986 31.2341C78.6593 31.2341 79.0805 31.0596 79.4622 30.7101L77.7945 28.7218L77.6399 28.8342C77.1178 29.2178 76.856 29.6124 76.856 30.0178C76.856 30.3858 76.9755 30.6807 77.2129 30.9022C77.4542 31.1231 77.7822 31.2341 78.1986 31.2341ZM77.4171 26.57C77.4171 26.8696 77.6018 27.2438 77.9711 27.6928L78.5251 27.3045C78.7388 27.1546 78.884 27.0129 78.9615 26.8787C79.0406 26.7411 79.0791 26.5761 79.0791 26.3827C79.0791 26.1735 79.001 26.0005 78.8445 25.8634C78.6888 25.7231 78.4913 25.6529 78.2529 25.6529C77.9963 25.6529 77.7931 25.7401 77.6422 25.9146C77.4923 26.0863 77.4171 26.3049 77.4171 26.57ZM87.0739 28.811C86.2996 28.5895 85.737 28.3183 85.3834 27.9968C85.0321 27.6725 84.857 27.2732 84.857 26.799C84.857 26.2627 85.0716 25.8198 85.5005 25.4703C85.9321 25.118 86.4928 24.9416 87.1815 24.9416C87.6508 24.9416 88.0691 25.0322 88.4356 25.2128C88.8049 25.394 89.0895 25.6434 89.2894 25.9616C89.4936 26.2798 89.5954 26.6273 89.5954 27.0048H88.6883C88.6883 26.5932 88.5579 26.2703 88.2942 26.0365C88.0315 25.7994 87.6603 25.6809 87.1815 25.6809C86.7374 25.6809 86.389 25.779 86.1392 25.9753C85.8922 26.1688 85.7679 26.4386 85.7679 26.7848C85.7679 27.0622 85.885 27.2978 86.1197 27.4913C86.3586 27.6815 86.7603 27.8564 87.3266 28.0153C87.8973 28.1741 88.3413 28.3505 88.6607 28.544C88.9829 28.7342 89.2214 28.957 89.3741 29.2131C89.5312 29.4687 89.6088 29.7698 89.6088 30.116C89.6088 30.6679 89.3936 31.1108 88.9605 31.4446C88.5289 31.7751 87.952 31.9406 87.2286 31.9406C86.7584 31.9406 86.321 31.8515 85.9131 31.6741C85.5062 31.493 85.1921 31.2469 84.9698 30.9349C84.7504 30.6229 84.6409 30.2691 84.6409 29.8727H85.5476C85.5476 30.2843 85.6985 30.6101 86.0026 30.8505C86.3091 31.0876 86.7179 31.2061 87.2286 31.2061C87.7036 31.2061 88.0691 31.1094 88.3223 30.9159C88.576 30.7224 88.7031 30.4588 88.7031 30.1254C88.7031 29.7916 88.5855 29.5346 88.3509 29.3535C88.1162 29.1699 87.6903 28.9888 87.0739 28.811ZM93.9607 31.346C93.6228 31.7424 93.1269 31.9402 92.473 31.9402C91.9304 31.9402 91.5178 31.7842 91.2331 31.4721C90.9514 31.1573 90.8081 30.6926 90.8053 30.078V26.7843H91.6739V30.0543C91.6739 30.8215 91.987 31.2052 92.6134 31.2052C93.2768 31.2052 93.718 30.9586 93.9374 30.4659V26.7838H94.806V31.8458H93.9798L93.9607 31.346ZM100.619 29.3724C100.619 30.143 100.442 30.7637 100.088 31.2346C99.7348 31.7054 99.256 31.9411 98.6511 31.9411C98.0348 31.9411 97.5489 31.7462 97.1962 31.3564V33.7938H96.3266V26.7852H97.12L97.1624 27.3467C97.5165 26.91 98.0077 26.6918 98.6378 26.6918C99.2475 26.6918 99.7301 26.9209 100.084 27.3794C100.441 27.8379 100.619 28.4757 100.619 29.2928V29.3724ZM99.7467 29.2752C99.7467 28.7043 99.6244 28.2538 99.3803 27.9233C99.1361 27.5928 98.8015 27.4273 98.3755 27.4273C97.8492 27.4273 97.4551 27.6596 97.1924 28.1244V30.5432C97.4522 31.0051 97.8492 31.2355 98.3851 31.2355C98.8015 31.2355 99.1313 31.0719 99.3755 30.7443C99.6225 30.4137 99.7467 29.9239 99.7467 29.2752ZM106.21 29.3724C106.21 30.143 106.033 30.7637 105.68 31.2346C105.326 31.7054 104.847 31.9411 104.243 31.9411C103.626 31.9411 103.142 31.7462 102.788 31.3564V33.7938H101.919V26.7852H102.712L102.755 27.3467C103.108 26.91 103.6 26.6918 104.229 26.6918C104.84 26.6918 105.321 26.9209 105.675 27.3794C106.032 27.8379 106.21 28.4757 106.21 29.2928V29.3724ZM105.339 29.2752C105.339 28.7043 105.217 28.2538 104.973 27.9233C104.728 27.5928 104.394 27.4273 103.968 27.4273C103.442 27.4273 103.047 27.6596 102.785 28.1244V30.5432C103.045 31.0051 103.442 31.2355 103.977 31.2355C104.394 31.2355 104.724 31.0719 104.968 30.7443C105.216 30.4137 105.339 29.9239 105.339 29.2752ZM107.28 29.2695C107.28 28.7735 107.377 28.3273 107.572 27.9314C107.769 27.5354 108.042 27.2296 108.389 27.0143C108.739 26.799 109.138 26.6914 109.586 26.6914C110.278 26.6914 110.837 26.9299 111.263 27.4074C111.691 27.8849 111.906 28.5194 111.906 29.3117V29.3724C111.906 29.8651 111.811 30.308 111.619 30.7011C111.432 31.0909 111.161 31.3953 110.807 31.6134C110.457 31.8316 110.053 31.9411 109.596 31.9411C108.907 31.9411 108.348 31.7026 107.92 31.2251C107.494 30.7476 107.28 30.1164 107.28 29.3302V29.2695ZM108.151 29.3724C108.151 29.9339 108.281 30.3843 108.54 30.7243C108.803 31.0643 109.154 31.2346 109.592 31.2346C110.034 31.2346 110.384 31.0629 110.643 30.7201C110.904 30.3739 111.034 29.8907 111.034 29.27C111.034 28.7147 110.9 28.2657 110.635 27.9228C110.371 27.5767 110.021 27.4036 109.582 27.4036C109.154 27.4036 108.808 27.5733 108.545 27.9138C108.282 28.2529 108.151 28.7394 108.151 29.3724ZM115.644 27.562C115.512 27.5402 115.37 27.5292 115.216 27.5292C114.647 27.5292 114.26 27.7711 114.056 28.2543V31.8472H113.188V26.7852H114.033L114.047 27.3699C114.332 26.9175 114.736 26.6914 115.259 26.6914C115.428 26.6914 115.556 26.7132 115.644 26.7568V27.562ZM118.05 25.5595V26.7852H119V27.4543H118.05V30.5935C118.05 30.7964 118.093 30.9491 118.177 31.052C118.262 31.1521 118.406 31.2018 118.609 31.2018C118.71 31.2018 118.848 31.1829 119.023 31.1459V31.8477C118.794 31.9103 118.572 31.9411 118.356 31.9411C117.968 31.9411 117.675 31.824 117.478 31.5902C117.28 31.3564 117.182 31.024 117.182 30.5939V27.4548H116.257V26.7857H117.182V25.5599H118.05V25.5595Z" fill="white"/>
</svg>
