<svg width="20" height="20" viewBox="0 0 20 20" fill="none" xmlns="http://www.w3.org/2000/svg">
<path fill-rule="evenodd" clip-rule="evenodd" d="M13.7807 2.08728L13.7815 2.72982C16.1427 2.91487 17.7024 4.52378 17.7049 6.99111L17.7142 14.2132C17.7176 16.9033 16.0276 18.5585 13.3186 18.5627L6.70155 18.5713C4.00953 18.5747 2.29834 16.8802 2.29496 14.1824L2.28565 7.04509C2.28227 4.56147 3.78695 2.95685 6.14808 2.7401L6.14723 2.09756C6.14639 1.72061 6.42566 1.43704 6.79802 1.43704C7.17039 1.43618 7.44966 1.71889 7.45051 2.09585L7.45135 2.69555L12.4783 2.6887L12.4774 2.089C12.4766 1.71204 12.7558 1.42933 13.1282 1.42847C13.4921 1.42761 13.7798 1.71033 13.7807 2.08728ZM3.59004 7.30971L16.4027 7.29257V6.99272C16.3663 5.15079 15.4422 4.18441 13.7835 4.04049L13.7843 4.70016C13.7843 5.06854 13.4975 5.36068 13.1336 5.36068C12.7612 5.36154 12.4811 5.07026 12.4811 4.70187L12.4802 4.00793L7.45331 4.01478L7.45416 4.70787C7.45416 5.07711 7.17573 5.36839 6.80337 5.36839C6.431 5.36925 6.15088 5.07882 6.15088 4.70958L6.15004 4.04991C4.49979 4.21526 3.58665 5.18506 3.58919 7.04327L3.59004 7.30971ZM12.7773 11.2033V11.2127C12.7857 11.6068 13.1073 11.9058 13.4975 11.8972C13.8783 11.8878 14.1821 11.5614 14.1736 11.1673C14.1559 10.7904 13.8504 10.4828 13.4704 10.4837C13.0811 10.4922 12.7764 10.8092 12.7773 11.2033ZM13.4763 15.05C13.087 15.0414 12.773 14.7167 12.7722 14.3227C12.7637 13.9286 13.076 13.6022 13.4653 13.5927H13.4737C13.8715 13.5927 14.1939 13.9174 14.1939 14.3201C14.1948 14.7227 13.8732 15.0491 13.4763 15.05ZM9.29054 11.217C9.30746 11.6111 9.6299 11.9187 10.0192 11.9015C10.4 11.8836 10.7038 11.558 10.6869 11.1639C10.6776 10.7784 10.3645 10.4785 9.98364 10.4794C9.59435 10.4965 9.28969 10.8229 9.29054 11.217ZM10.0224 15.0116C9.63316 15.0287 9.31157 14.7212 9.2938 14.3271C9.2938 13.933 9.59761 13.6075 9.9869 13.5895C10.3677 13.5886 10.6817 13.8885 10.6902 14.2731C10.7079 14.6681 10.4033 14.9936 10.0224 15.0116ZM5.80379 11.2472C5.82071 11.6412 6.14315 11.9497 6.53244 11.9317C6.91326 11.9145 7.21708 11.5881 7.19931 11.194C7.19084 10.8085 6.87772 10.5087 6.49605 10.5095C6.10676 10.5267 5.80294 10.8531 5.80379 11.2472ZM6.53594 15.0159C6.14665 15.0339 5.82507 14.7255 5.8073 14.3314C5.80645 13.9373 6.11111 13.6109 6.5004 13.5938C6.88123 13.5929 7.1952 13.8928 7.20366 14.2783C7.22143 14.6724 6.91762 14.9988 6.53594 15.0159Z" fill="#F3F4F6"/>
</svg>
